<svg width="51" height="69" viewBox="0 0 51 69" fill="none" xmlns="http://www.w3.org/2000/svg">
<path d="M30.6092 51.5273H20.3911V62.9715H30.6092V51.5273Z" fill="#FDCC9B"/>
<path d="M20.3916 52.875C20.3916 52.875 24.6898 55.6121 30.6097 54.9781V51.527H20.3916V52.875Z" fill="#FCBC85"/>
<path d="M5.65722 39.47C8.41081 39.47 10.643 36.9232 10.643 33.7816C10.643 30.64 8.41081 28.0933 5.65722 28.0933C2.90362 28.0933 0.671387 30.64 0.671387 33.7816C0.671387 36.9232 2.90362 39.47 5.65722 39.47Z" fill="#FCBC85"/>
<path d="M45.3437 39.47C48.0973 39.47 50.3296 36.9232 50.3296 33.7816C50.3296 30.64 48.0973 28.0933 45.3437 28.0933C42.5901 28.0933 40.3579 30.64 40.3579 33.7816C40.3579 36.9232 42.5901 39.47 45.3437 39.47Z" fill="#FCBC85"/>
<path d="M45.3234 22.9166C45.3234 14.5381 39.1926 8.40686 25.5004 8.40686C11.8082 8.40686 5.67736 14.5377 5.67736 22.9166C5.67736 31.2955 4.24693 53.3666 25.5004 53.3666C46.7539 53.3666 45.3234 31.2955 45.3234 22.9166Z" fill="#FDCC9B"/>
<path d="M15.845 34.7695C17.0301 34.7695 17.9909 33.7173 17.9909 32.4193C17.9909 31.1213 17.0301 30.0691 15.845 30.0691C14.6599 30.0691 13.6992 31.1213 13.6992 32.4193C13.6992 33.7173 14.6599 34.7695 15.845 34.7695Z" fill="#3B2519"/>
<path d="M14.9093 32.0234C15.2637 32.0234 15.551 31.7361 15.551 31.3817C15.551 31.0273 15.2637 30.74 14.9093 30.74C14.5549 30.74 14.2676 31.0273 14.2676 31.3817C14.2676 31.7361 14.5549 32.0234 14.9093 32.0234Z" fill="white"/>
<path d="M12.412 26.595C13.4267 27.1026 15.056 24.8709 18.7855 26.8123C19.4654 27.1662 19.8711 23.7853 15.8736 23.7853C12.412 23.7853 11.7988 26.2888 12.412 26.595Z" fill="#51362A"/>
<path d="M35.4202 34.7695C36.6053 34.7695 37.5661 33.7173 37.5661 32.4193C37.5661 31.1213 36.6053 30.0691 35.4202 30.0691C34.2351 30.0691 33.2744 31.1213 33.2744 32.4193C33.2744 33.7173 34.2351 34.7695 35.4202 34.7695Z" fill="#3B2519"/>
<path d="M34.4845 32.0234C34.8389 32.0234 35.1262 31.7361 35.1262 31.3817C35.1262 31.0273 34.8389 30.74 34.4845 30.74C34.1301 30.74 33.8428 31.0273 33.8428 31.3817C33.8428 31.7361 34.1301 32.0234 34.4845 32.0234Z" fill="white"/>
<path d="M38.588 26.595C37.5734 27.1026 35.9441 24.8709 32.2146 26.8123C31.5346 27.1662 31.129 23.7853 35.1269 23.7853C38.588 23.7853 39.2009 26.2888 38.588 26.595Z" fill="#51362A"/>
<path d="M25.5006 40.686C23.3802 40.686 22.103 39.1022 22.103 39.8684C22.103 40.6349 22.7162 42.091 25.5006 42.091C28.285 42.091 28.8982 40.6349 28.8982 39.8684C28.8982 39.1019 27.6207 40.686 25.5006 40.686Z" fill="#FCBC85"/>
<path d="M25.5005 47.7321C24.767 47.7321 24.3252 47.1842 24.3252 47.4495C24.3252 47.7147 24.5372 48.218 25.5005 48.218C26.4637 48.218 26.6754 47.7147 26.6754 47.4495C26.6754 47.1842 26.2336 47.7321 25.5005 47.7321Z" fill="#FCBC85"/>
<path d="M25.5003 45.7796C22.1396 45.7796 20.1147 44.4111 20.1147 44.758C20.1147 45.1049 21.0867 46.4697 25.5003 46.4697C29.914 46.4697 30.8859 45.1049 30.8859 44.758C30.8856 44.4111 28.8611 45.7796 25.5003 45.7796Z" fill="#F7945E"/>
<path d="M25.5004 56.1251V69H0.671387C0.671387 63.7886 13.7497 56.1251 25.5004 56.1251Z" fill="#F7941E"/>
<path d="M25.5 56.1251V69H50.329C50.329 63.7886 37.2507 56.1251 25.5 56.1251Z" fill="#F7941E"/>
<path d="M25.5008 56.1251C23.0015 56.1251 20.4423 56.4745 17.9614 57.0706C17.9781 57.0925 20.7131 60.6212 25.5008 60.6212C29.9343 60.6212 32.8817 57.5994 33.3089 57.1346C30.7442 56.4981 28.0906 56.1251 25.5008 56.1251Z" fill="#F36C21"/>
<path d="M20.3911 56.5707C20.3911 56.5707 21.8855 58.4242 25.5 58.4242C29.1145 58.4242 30.6092 56.5707 30.6092 56.5707C30.6092 56.5707 25.3088 54.6411 20.3911 56.5707Z" fill="#FDCC9B"/>
<path d="M41.7981 6.61891C41.7981 6.61891 34.4412 -2.73052 19.1503 0.794633C3.85983 4.31944 2.71409 13.5159 3.17399 22.4632C3.63388 31.4107 4.85991 36.6597 6.31016 36.0111C7.76041 35.3621 7.00574 29.4561 7.15903 28.0931C7.31233 26.7301 8.69167 20.5662 17.9914 21.486C27.2908 22.4058 35.1274 19.0336 35.1274 19.0336C35.1274 19.0336 38.282 23.0211 40.3579 23.7851C44.5063 25.3115 43.1458 35.4893 44.7712 35.4893C46.3967 35.4893 54.3664 11.9833 41.7981 6.61891Z" fill="#51362A"/>
</svg>
