<svg width="69" height="69" viewBox="0 0 69 69" fill="none" xmlns="http://www.w3.org/2000/svg">
<path d="M38.9527 40.4297C39.5888 41.9822 40.3542 43.125 41.497 43.125C45.0009 43.125 45.0009 32.3438 48.5048 32.3438C52.0088 32.3438 52.0088 43.125 55.5234 43.125C56.9681 43.125 57.8091 41.2922 58.553 39.1467H58.5637L66.8438 61.4531V62.5312H32.3438C34.1334 62.5312 35.5781 61.0866 35.5781 59.2969V51.157L38.9527 40.4297Z" fill="#B4DD7F"/>
<path d="M41.497 43.125C40.3542 43.125 39.5887 41.9822 38.9526 40.4297L42.877 27.945C43.0819 27.3197 43.3729 26.7375 43.7395 26.2308C44.8284 24.7106 46.5858 23.7619 48.5156 23.7188H48.6342C49.8956 23.7188 51.0923 24.1069 52.0734 24.7969C53.0653 25.4869 53.8523 26.4787 54.2944 27.6539L58.5637 39.1467H58.553C57.809 41.2922 56.9681 43.125 55.5234 43.125C52.0087 43.125 52.0087 32.3438 48.5048 32.3438C45.0009 32.3438 45.0009 43.125 41.497 43.125Z" fill="#E6E9ED"/>
<path d="M63.6094 9.70312L48.5156 15.0938V4.3125H49.5938L63.6094 9.70312Z" fill="#FF826E"/>
<path d="M20.4844 17.25C20.4844 17.6166 20.5167 17.9831 20.5814 18.3281H20.5706H6.46875C4.08609 18.3281 2.15625 16.3983 2.15625 14.0156C2.15625 11.633 4.08609 9.70312 6.46875 9.70312H6.555C6.50109 9.35813 6.46875 8.99156 6.46875 8.625C6.46875 5.05641 9.36891 2.15625 12.9375 2.15625C15.8269 2.15625 18.2742 4.05375 19.1044 6.67359C19.5464 6.555 19.9992 6.46875 20.4844 6.46875C23.1258 6.46875 25.3252 8.37703 25.7887 10.8891C22.77 11.4389 20.4844 14.0803 20.4844 17.25Z" fill="#E6E9ED"/>
<path d="M18.6084 38.8125H28.0312L33.7669 42.9094C34.9097 43.718 35.5781 45.0333 35.5781 46.4241V51.157V59.2969C35.5781 61.0866 34.1334 62.5312 32.3438 62.5312C31.4489 62.5312 30.6403 62.1647 30.0581 61.5825C29.4759 61.0003 29.1094 60.1917 29.1094 59.2969V49.0978C29.1094 48.7313 28.9261 48.397 28.6242 48.1922L25.875 46.3594H24.7969L21.0773 64.0083C20.7323 65.6578 19.2769 66.8438 17.5842 66.8438C16.6031 66.8438 15.7083 66.4448 15.0614 65.798C14.4145 65.1511 14.0156 64.2562 14.0156 63.2752V62.9625C14.0156 62.6714 14.048 62.3911 14.1127 62.1216L16.1072 53.9062H19.4062V40.9688H18.188L18.6084 38.8125Z" fill="#838F9B"/>
<path d="M19.4062 40.9688V53.9062H16.1072H2.15625V40.9688L2.97562 42.6183C3.70875 44.0953 4.84078 45.3028 6.19922 46.133C7.54688 46.9739 9.13172 47.4375 10.7812 47.4375C14.0803 47.4375 17.1098 45.5723 18.5869 42.6183L19.4062 40.9688Z" fill="#D3A06C"/>
<path d="M18.188 40.9688H19.4062L18.5869 42.6183C17.1098 45.5723 14.0803 47.4375 10.7812 47.4375C9.13172 47.4375 7.54688 46.9739 6.19922 46.133C4.84078 45.3028 3.70875 44.0953 2.97562 42.6183L2.15625 40.9688H8.99156H9.40125H18.188Z" fill="#DFB28B"/>
<path d="M45.2812 15.5789C45.2812 15.9886 45.1842 16.3983 45.0009 16.7648L40.958 24.84L40.9041 24.9478C39.6211 27.4922 37.012 29.1094 34.155 29.1094H30.1875L28.0312 38.8125H18.6084L20.4844 29.1094C19.1367 29.1094 17.8969 29.7994 17.1745 30.9314L11.5252 39.8044C11.0616 40.5267 10.2638 40.9688 9.40125 40.9688H8.99156C7.60078 40.9688 6.46875 39.8367 6.46875 38.4459C6.46875 37.9823 6.59812 37.5187 6.84609 37.1306L11.9348 28.8506C13.897 25.6594 17.3794 23.7188 21.1205 23.7188H23.7188H26.9531H32.9152C34.5431 23.7188 36.0417 22.7916 36.7748 21.3361L40.2356 14.4037C40.6884 13.4981 41.6048 12.9375 42.6075 12.9375H42.6398C44.0953 12.9375 45.2812 14.1234 45.2812 15.5789Z" fill="#FCD770"/>
<path d="M26.9531 10.7812C30.5217 10.7812 33.4219 13.6814 33.4219 17.25C33.4219 20.8186 30.5217 23.7188 26.9531 23.7188C23.7511 23.7188 21.0881 21.39 20.5814 18.3281C20.5167 17.9831 20.4844 17.6166 20.4844 17.25C20.4844 14.0803 22.77 11.4389 25.7888 10.8891C26.1661 10.8136 26.5542 10.7812 26.9531 10.7812Z" fill="#F0D0B4"/>
<path d="M60.375 57.1406H62.5312V59.2969H60.375V57.1406Z" fill="black"/>
<path d="M56.0625 57.1406H58.2188V59.2969H56.0625V57.1406Z" fill="black"/>
<path d="M51.75 57.1406H53.9062V59.2969H51.75V57.1406Z" fill="black"/>
</svg>
