<svg width="69" height="69" viewBox="0 0 69 69" fill="none" xmlns="http://www.w3.org/2000/svg">
<path d="M34.3074 64.5012C33.7457 64.5012 33.283 64.0542 33.2667 63.4894C33.2504 62.9145 33.7031 62.4355 34.278 62.4191C34.8539 62.3928 35.3377 62.8387 35.3629 63.4136C35.3887 63.9879 34.9423 64.4743 34.3675 64.4996L34.3375 64.5006C34.3274 64.5012 34.3174 64.5012 34.3074 64.5012ZM30.1202 64.3443C30.0792 64.3443 30.0386 64.3422 29.997 64.3375L29.9944 64.3369C29.4222 64.2795 29.0079 63.77 29.0653 63.1972C29.1227 62.625 29.6364 62.2086 30.2081 62.2654L30.2403 62.2686C30.8114 62.336 31.2199 62.8535 31.1526 63.4246C31.0904 63.9547 30.6409 64.3443 30.1202 64.3443ZM38.4852 64.0232C37.9977 64.0232 37.5624 63.6794 37.465 63.183C37.3534 62.6187 37.7208 62.0712 38.2851 61.9601L38.3046 61.9564C38.8695 61.8485 39.4149 62.2191 39.5228 62.784C39.6307 63.3483 39.2606 63.8942 38.6958 64.0021L38.6879 64.0037C38.6194 64.0169 38.552 64.0232 38.4852 64.0232ZM25.9888 63.551C25.8983 63.551 25.8062 63.5389 25.714 63.5141L25.7082 63.5125C25.1529 63.3646 24.8212 62.7945 24.9686 62.2391C25.116 61.6832 25.6856 61.3521 26.241 61.499L26.2626 61.5047C26.8174 61.6564 27.1443 62.2286 26.9927 62.7834C26.8664 63.2467 26.4468 63.551 25.9888 63.551ZM42.5429 62.9108C42.117 62.9108 41.718 62.6487 41.5637 62.2254C41.3674 61.6848 41.6464 61.0873 42.1865 60.8909L42.2039 60.8851C42.7445 60.6909 43.341 60.9715 43.5357 61.5126C43.7305 62.0538 43.4489 62.6502 42.9077 62.845L42.8988 62.8482C42.7808 62.8908 42.6608 62.9108 42.5429 62.9108ZM22.0227 62.1307C21.8806 62.1307 21.7363 62.1012 21.5979 62.0385L21.5837 62.0322C21.0599 61.7948 20.8277 61.1778 21.0651 60.654C21.3026 60.1302 21.919 59.8981 22.4433 60.1355C22.9677 60.3724 23.2061 60.9915 22.9698 61.5158C22.7955 61.9017 22.4186 62.1307 22.0227 62.1307ZM46.3784 61.1899C46.0057 61.1899 45.6462 60.9899 45.4588 60.6388C45.1877 60.1313 45.3798 59.5001 45.8873 59.2295C46.3911 58.9526 47.0244 59.1363 47.3018 59.6401C47.5787 60.1439 47.3955 60.7772 46.8912 61.0541L46.8675 61.0673C46.7111 61.1505 46.5437 61.1899 46.3784 61.1899ZM55.8357 51.8816L55.8426 51.8864L55.7325 51.8079L55.8357 51.8816ZM7.76862 47.3428C7.35748 47.3428 6.96792 47.0975 6.80315 46.6932L6.80052 46.6858C6.58099 46.1541 6.83421 45.545 7.36537 45.326C7.89707 45.1065 8.50614 45.3597 8.72514 45.8909L8.73251 45.9093C8.9494 46.4421 8.6925 47.0495 8.15975 47.2659C8.03183 47.318 7.89864 47.3428 7.76862 47.3428ZM59.4554 45.3444C59.3465 45.3444 59.2354 45.3271 59.1259 45.2908C58.5842 45.1102 58.2894 44.5269 58.4637 43.9842C58.6337 43.4372 59.2138 43.1282 59.7618 43.2945C60.3119 43.4619 60.6225 44.0415 60.4562 44.5911L60.443 44.6322C60.2977 45.0686 59.8913 45.3444 59.4554 45.3444ZM6.49519 43.334C6.02403 43.334 5.5971 43.0124 5.48287 42.5344L5.47971 42.5207C5.34652 41.9611 5.69133 41.3994 6.25092 41.2657C6.81052 41.132 7.37222 41.4773 7.5054 42.0369L7.50856 42.0506C7.64227 42.6097 7.29694 43.1714 6.73787 43.3051C6.65627 43.3245 6.5752 43.334 6.49519 43.334ZM60.413 41.2488C60.353 41.2488 60.2925 41.2436 60.2309 41.2325C59.6687 41.1335 59.2917 40.5998 59.3844 40.0381C59.4718 39.4721 59.9998 39.0815 60.5662 39.1647C61.1348 39.2489 61.528 39.7759 61.4443 40.345L61.4375 40.3881C61.3485 40.893 60.9089 41.2488 60.413 41.2488ZM5.85242 39.1752C5.31809 39.1752 4.86379 38.7678 4.81641 38.2261L4.81325 38.1829C4.77956 37.6086 5.21755 37.1164 5.79188 37.0822C6.36095 37.0474 6.85211 37.4807 6.89159 38.0492C6.93739 38.6199 6.51414 39.1226 5.94296 39.1716C5.91243 39.1742 5.88242 39.1752 5.85242 39.1752ZM60.732 37.0548C60.1567 37.0548 59.6908 36.5889 59.6908 36.0135V35.9998C59.6908 35.9925 59.6908 35.9851 59.6908 35.9782C59.6908 35.9693 59.6908 35.9598 59.6908 35.9509V35.9372C59.6908 35.3618 60.1567 34.8954 60.732 34.8954C61.3069 34.8954 61.7733 35.3618 61.7733 35.9372V35.9509C61.7733 35.9582 61.7733 35.9656 61.7728 35.9724C61.7733 35.9814 61.7733 35.9903 61.7733 35.9998V36.0135C61.7733 36.5889 61.3074 37.0548 60.732 37.0548ZM5.84979 34.9712C5.81978 34.9712 5.78925 34.9696 5.75871 34.967C5.18649 34.9175 4.76271 34.4142 4.81114 33.8425C4.85115 33.274 5.33757 32.8407 5.91085 32.8765C6.48519 32.9102 6.92317 33.403 6.88948 33.9768L6.8858 34.0199C6.83894 34.5621 6.38411 34.9712 5.84979 34.9712ZM60.4051 32.7991C59.9092 32.7991 59.4702 32.4438 59.3812 31.9384L59.3739 31.8953C59.2907 31.3262 59.6839 30.7971 60.253 30.7134C60.8189 30.6297 61.349 31.0219 61.4338 31.5894C61.5259 32.1506 61.1495 32.6833 60.5873 32.7828C60.5262 32.7939 60.4651 32.7991 60.4051 32.7991ZM60.5799 31.7179L60.4041 31.7436L60.5799 31.7179ZM6.4815 30.8134C6.40148 30.8134 6.31989 30.804 6.23882 30.7845C5.68028 30.6513 5.33494 30.0907 5.46707 29.5321C5.59026 28.9767 6.13827 28.6219 6.69681 28.7388C7.25956 28.8567 7.62069 29.4084 7.50277 29.9712L7.4933 30.0138C7.37959 30.4918 6.95265 30.8134 6.4815 30.8134ZM59.4497 28.7098C59.0117 28.7098 58.6026 28.4298 58.4568 27.9923L58.4452 27.956C58.2757 27.4064 58.5842 26.8237 59.1343 26.6547C59.6844 26.4852 60.2661 26.7936 60.4357 27.3438L60.4362 27.3453C60.6178 27.8912 60.3214 28.4751 59.7755 28.6567C59.6681 28.693 59.5581 28.7098 59.4497 28.7098ZM7.74388 26.7984C7.61332 26.7984 7.48066 26.7736 7.35221 26.7215C6.81947 26.5052 6.5631 25.8977 6.77946 25.3649L6.78472 25.3523C7.00108 24.8195 7.60806 24.5626 8.14133 24.779C8.67407 24.9954 8.93044 25.6029 8.71408 26.1356L8.70882 26.1488C8.54457 26.5531 8.15502 26.7984 7.74388 26.7984ZM57.8704 24.8095C57.4913 24.8095 57.125 24.6016 56.9396 24.2426L56.9239 24.212C56.6701 23.6956 56.8828 23.0718 57.3992 22.8181C57.9151 22.5643 58.5389 22.777 58.7932 23.2929L58.7937 23.295C59.058 23.8056 58.8553 24.43 58.3442 24.6937C58.1925 24.7722 58.0304 24.8095 57.8704 24.8095ZM9.60848 23.026C9.42371 23.026 9.2363 22.977 9.06732 22.8733C8.57721 22.5748 8.42191 21.9363 8.71829 21.4462C9.0052 20.9561 9.63428 20.7855 10.1302 21.0666C10.6303 21.3504 10.8061 21.9858 10.5229 22.4859C10.515 22.4996 10.5066 22.5133 10.4981 22.5269C10.3023 22.8486 9.95961 23.026 9.60848 23.026ZM55.7083 21.1972C55.3751 21.1972 55.0471 21.0372 54.846 20.7408C54.5118 20.2728 54.6228 19.6269 55.0914 19.2926C55.5588 18.9583 56.2127 19.0715 56.5469 19.5395L56.569 19.571C56.8917 20.0469 56.768 20.6944 56.2921 21.0177C56.1132 21.1393 55.91 21.1972 55.7083 21.1972ZM12.0279 19.5837C11.7932 19.5837 11.5578 19.5047 11.3631 19.3436C10.9209 18.9762 10.8598 18.3197 11.2273 17.877L11.2362 17.8665C11.6036 17.4237 12.2596 17.3632 12.7023 17.7301C13.145 18.0976 13.2061 18.754 12.8386 19.1968L12.8297 19.2073C12.6239 19.4558 12.327 19.5837 12.0279 19.5837ZM53.0257 17.9575C52.7519 17.9575 52.4787 17.8507 52.2744 17.6375C51.8717 17.2269 51.8775 16.5662 52.2887 16.1635C52.6987 15.7613 53.3573 15.7671 53.7595 16.1777L53.7769 16.1951C54.1754 16.6099 54.1617 17.2695 53.7469 17.6675C53.5447 17.8617 53.2852 17.9575 53.0257 17.9575ZM14.9423 16.5494C14.6538 16.5494 14.3674 16.4309 14.1616 16.1982C13.7804 15.7676 13.821 15.1096 14.2516 14.7284L14.2558 14.7248C14.6838 14.342 15.3423 14.3768 15.7261 14.8048C16.1093 15.2322 16.0757 15.8887 15.6487 16.273L15.6319 16.2882C15.4334 16.4635 15.187 16.5494 14.9423 16.5494ZM49.8813 15.1622C49.6676 15.1622 49.4528 15.0969 49.267 14.9611L49.2317 14.9343C48.7779 14.581 48.6958 13.9272 49.049 13.4729C49.4017 13.0196 50.054 12.9375 50.5077 13.2887C50.9626 13.6303 51.0594 14.2757 50.7225 14.7358C50.5183 15.0148 50.2019 15.1622 49.8813 15.1622ZM49.975 13.9788L49.8708 14.1125L49.975 13.9788ZM18.2819 13.993C17.9382 13.993 17.6018 13.823 17.4033 13.5119C17.0943 13.0275 17.2359 12.3853 17.7186 12.0752C18.1935 11.7615 18.8341 11.8873 19.1542 12.3595C19.4774 12.8354 19.3532 13.4829 18.8773 13.8056L18.841 13.8298C18.6678 13.9404 18.4741 13.993 18.2819 13.993ZM46.3463 12.8765C46.1821 12.8765 46.0152 12.8375 45.8599 12.7549L45.8352 12.7412C45.3314 12.4643 45.1477 11.831 45.4246 11.3272C45.7015 10.8234 46.3348 10.6397 46.8385 10.9166L46.8417 10.9181C47.3444 11.1924 47.5345 11.8236 47.2628 12.3279C47.0744 12.6775 46.7164 12.8765 46.3463 12.8765ZM21.9717 11.9757C21.5747 11.9757 21.1952 11.7478 21.0214 11.363C20.7846 10.8392 21.0172 10.2227 21.541 9.98584L21.5652 9.97532C22.0917 9.74421 22.7055 9.98479 22.9366 10.5117C23.1666 11.0387 22.9266 11.6525 22.3996 11.8831C22.2607 11.9457 22.1148 11.9757 21.9717 11.9757Z" fill="#A7C7D3"/>
<path d="M41.3082 56.2141L25.6307 40.5366C24.6478 39.5542 24.6468 37.9644 25.6281 36.9837C26.0155 36.5962 26.4998 36.3615 27.0031 36.282C27.7711 36.1583 28.5866 36.3925 29.1809 36.9868L25.1437 32.9497C24.6531 32.459 24.4067 31.8157 24.4067 31.174C24.4067 31.0403 24.4173 30.9061 24.4389 30.7724C24.5194 30.268 24.7531 29.7848 25.1411 29.3968C25.5249 29.013 26.0008 28.7804 26.4977 28.6977C27.1742 28.5851 27.887 28.7498 28.455 29.1926L26.9189 27.6564C26.4277 27.1653 26.1813 26.5204 26.1813 25.8782C26.1803 25.7418 26.1924 25.6044 26.215 25.4702C26.2956 24.969 26.5288 24.4884 26.9146 24.1025C27.3026 23.7145 27.7864 23.4798 28.2923 23.4003C29.0598 23.2766 29.8758 23.5113 30.4696 24.1052L32.2289 25.8645C31.6362 25.2717 31.4003 24.4547 31.524 23.6872C31.6035 23.1834 31.8373 22.7001 32.2263 22.3116C33.206 21.3319 34.7974 21.333 35.7792 22.3148L45.9677 32.5033L45.9961 32.4627C46.5125 31.9463 47.1211 31.5794 47.7701 31.3604C49.3721 30.8203 51.2161 31.1893 52.4943 32.468L57.2448 37.2185C58.1582 38.1313 58.6704 39.3684 58.6725 40.6582L58.6751 43.6304C58.6762 45.0191 59.2289 46.3515 60.2128 47.3354L61.272 48.3945L49.1552 60.5113L47.8012 59.1574C46.901 58.2572 45.7034 57.715 44.4342 57.6318C43.255 57.5544 42.1447 57.0506 41.3082 56.2141Z" fill="#FECBAA"/>
<path d="M48.3679 61.2984L62.1213 47.5449C62.5746 47.0916 63.309 47.0916 63.7622 47.5449L68.6601 52.4428C69.1134 52.896 69.1134 53.6309 68.6601 54.0837L54.9072 67.8371C54.4539 68.2904 53.719 68.2904 53.2663 67.8371L48.3679 62.9392C47.9151 62.486 47.9151 61.7511 48.3679 61.2984Z" fill="#FDD559"/>
<path d="M62.487 53.7183C62.8939 54.1252 63.5525 54.1257 63.9584 53.7198C64.3643 53.314 64.3637 52.6549 63.9573 52.2485C63.5504 51.8415 62.8918 51.841 62.486 52.2469C62.0801 52.6533 62.0806 53.3119 62.487 53.7183Z" fill="#FF8812"/>
<path d="M49.4759 36.0108L45.9678 32.5032L45.9962 32.4627C46.5126 31.9463 47.1212 31.5793 47.7703 31.3604L50.9483 34.5384C51.3547 34.9448 51.3547 35.6044 50.9483 36.0108C50.5409 36.4183 49.8823 36.4172 49.4759 36.0108Z" fill="#FFAE85"/>
<path d="M27.6918 56.2156L43.3693 40.5381C44.3522 39.5552 44.3532 37.9659 43.3725 36.9852C42.9845 36.5972 42.5007 36.3624 41.9969 36.2829C41.2289 36.1592 40.4134 36.394 39.8191 36.9878L43.8563 32.9512C44.3469 32.4605 44.5933 31.8172 44.5933 31.175C44.5933 31.0418 44.5827 30.9071 44.5612 30.7739C44.4806 30.269 44.2469 29.7863 43.8589 29.3983C43.4751 29.0145 42.9992 28.7819 42.5023 28.6992C41.8258 28.5866 41.1131 28.7513 40.545 29.1941L42.0812 27.6574C42.5723 27.1668 42.8187 26.5219 42.8187 25.8797C42.8197 25.7428 42.8076 25.6054 42.785 25.4712C42.705 24.9705 42.4712 24.4894 42.0854 24.1035C41.6974 23.716 41.2136 23.4813 40.7077 23.4018C39.9402 23.2781 39.1242 23.5123 38.5304 24.1067L36.7711 25.866C37.3638 25.2727 37.5997 24.4562 37.476 23.6881C37.3965 23.1849 37.1627 22.7016 36.7737 22.3126C35.794 21.3329 34.2026 21.334 33.2208 22.3157L23.0323 32.5042L23.0039 32.4642C22.4875 31.9478 21.8789 31.5809 21.2299 31.3619C19.6274 30.8218 17.7839 31.1908 16.5057 32.469L11.7552 37.22C10.8419 38.1328 10.3296 39.3699 10.3275 40.6597L10.3244 43.6313C10.3238 45.0206 9.7711 46.353 8.7872 47.3369L7.72803 48.3961L19.8448 60.5128L21.1988 59.1589C22.099 58.2587 23.2966 57.7165 24.5658 57.6333C25.745 57.5559 26.8553 57.0521 27.6918 56.2156Z" fill="#FECBAA"/>
<path d="M20.6324 61.2994L6.87895 47.5465C6.4257 47.0932 5.69133 47.0932 5.23807 47.5465L0.340185 52.4444C-0.11307 52.8976 -0.11307 53.632 0.340185 54.0853L14.0931 67.8387C14.5464 68.292 15.2813 68.292 15.7345 67.8387L20.6324 62.9408C21.0857 62.4876 21.0857 61.7527 20.6324 61.2994Z" fill="#FF84A7"/>
<path d="M15.938 63.144C16.3449 62.7371 16.3454 62.0785 15.9396 61.6726C15.5337 61.2662 14.8746 61.2668 14.4682 61.6737C14.0613 62.0801 14.0607 62.7392 14.4666 63.1451C14.873 63.5509 15.5316 63.5504 15.938 63.144Z" fill="#EF6085"/>
<path d="M19.5246 36.0124L23.0322 32.5043L23.0037 32.4643C22.4873 31.9479 21.8788 31.5809 21.2297 31.3619L18.0516 34.5395C17.6452 34.9459 17.6452 35.606 18.0516 36.0124C18.4591 36.4199 19.1176 36.4188 19.5246 36.0124Z" fill="#FFAE85"/>
<path d="M44.5267 18.643V40.8146C44.5267 42.2044 43.4039 43.3288 42.0167 43.3288C41.4682 43.3288 40.9602 43.1525 40.5475 42.8524C39.9173 42.397 39.5062 41.6542 39.5062 40.8146V46.5237C39.5062 47.2175 39.2256 47.8466 38.7718 48.3004C38.6776 48.3952 38.5744 48.4825 38.4649 48.5615C38.0512 48.8616 37.5447 49.0379 36.9962 49.0379C36.4534 49.0379 35.9518 48.8658 35.5422 48.5731C34.9842 48.1746 34.5967 47.5539 34.5083 46.8385V49.0116C34.5083 49.706 34.2261 50.3361 33.7723 50.7899C33.6765 50.8873 33.5707 50.9762 33.4602 51.0552C33.049 51.3526 32.5437 51.5274 31.9978 51.5274C31.4497 51.5274 30.9412 51.351 30.5274 51.0499C29.8973 50.5946 29.4862 49.8518 29.4862 49.0116V46.5237C29.4862 47.3623 29.0756 48.1061 28.4449 48.5615C28.0327 48.8616 27.5257 49.0379 26.9762 49.0379C25.5901 49.0379 24.4656 47.9119 24.4656 46.5237V32.1148L24.4172 32.1233C23.687 32.1233 22.9969 31.9522 22.3831 31.6484C20.8685 30.8972 19.8257 29.3327 19.8257 27.5249V20.8061C19.8257 19.5153 20.3379 18.2782 21.2486 17.3643L23.348 15.2612C24.3298 14.2779 24.881 12.9455 24.881 11.5541V10.0559H42.0162V11.9705C42.0162 13.2434 42.48 14.4737 43.3186 15.4302C44.0977 16.3188 44.5267 17.4601 44.5267 18.643Z" fill="#FEDFC5"/>
<path d="M43.3722 36.9852C42.9843 36.5972 42.5005 36.363 41.9967 36.2829C41.2286 36.1592 40.4132 36.394 39.8188 36.9884L43.856 32.9512C44.3467 32.4605 44.5936 31.8172 44.5936 31.1755C44.5936 31.0418 44.5825 30.9071 44.5609 30.7739C44.4804 30.269 44.2472 29.7863 43.8592 29.3983C43.4754 29.0145 42.999 28.7819 42.5026 28.6992C41.8261 28.5866 41.1133 28.7513 40.5448 29.1941L42.0814 27.6574C42.5721 27.1668 42.8184 26.5219 42.8184 25.8797C42.8195 25.7433 42.8079 25.6059 42.7853 25.4712C42.7047 24.9705 42.471 24.4894 42.0851 24.1035C41.6977 23.716 41.2134 23.4813 40.708 23.4018C39.9405 23.2781 39.124 23.5128 38.5302 24.1067L36.7708 25.866C37.3636 25.2727 37.5994 24.4562 37.4757 23.6881C37.3962 23.1849 37.1625 22.7016 36.774 22.3126C35.7938 21.3329 34.2024 21.334 33.2206 22.3157L23.0321 32.5042L23.0037 32.4642C22.4873 31.9478 21.8787 31.5809 21.2296 31.3619C20.461 31.1029 19.6372 31.055 18.8459 31.2145C19.4829 32.1773 20.3736 32.9759 21.4591 33.5145C21.7603 33.6634 22.0687 33.7887 22.3835 33.8898V46.5235C22.3835 49.0583 24.444 51.1203 26.9761 51.1203C27.2809 51.1203 27.581 51.0908 27.8731 51.0329C28.2001 51.701 28.6875 52.289 29.3019 52.7328C29.683 53.0107 30.0989 53.2234 30.5363 53.3708L43.3691 40.5381C44.3519 39.5552 44.353 37.9659 43.3722 36.9852Z" fill="#FFAE85"/>
<path d="M46.6084 40.8145V31.9474C46.3931 32.0984 46.1878 32.2706 45.9951 32.4627L45.9667 32.5033L35.7782 22.3148C34.7964 21.333 33.205 21.3319 32.2253 22.3116C31.8363 22.7001 31.6026 23.1834 31.5231 23.6872C31.3994 24.4547 31.6352 25.2717 32.228 25.8645L30.4687 24.1052C29.8748 23.5113 29.0589 23.2766 28.2913 23.4003C27.7855 23.4798 27.3017 23.7145 26.9137 24.1025C26.5278 24.4884 26.2941 24.969 26.2135 25.4702C26.1914 25.6044 26.1793 25.7418 26.1804 25.8782C26.1804 26.5204 26.4267 27.1653 26.9179 27.6564L28.454 29.1926C27.8855 28.7498 27.1732 28.5851 26.4968 28.6977C25.9998 28.7804 25.5239 29.013 25.1401 29.3968C24.7522 29.7848 24.5184 30.268 24.4379 30.7724C24.4163 30.9061 24.4053 31.0403 24.4058 31.174C24.4053 31.8163 24.6521 32.459 25.1428 32.9497L29.18 36.9869C28.5861 36.393 27.7702 36.1583 27.0027 36.282C26.4989 36.3615 26.0145 36.5962 25.6271 36.9837C24.6464 37.965 24.6474 39.5542 25.6297 40.5371L36.1325 51.0393C36.4147 51.093 36.7031 51.1204 36.9953 51.1204C37.9687 51.1204 38.8994 50.8188 39.6827 50.2507C39.8823 50.1065 40.0712 49.9459 40.2439 49.7733C41.1109 48.9062 41.5884 47.7523 41.5884 46.5236V45.3918C41.7295 45.405 41.8727 45.4113 42.0159 45.4113C44.548 45.4113 46.6084 43.3493 46.6084 40.8145Z" fill="#FFAE85"/>
<path d="M44.5267 18.643V40.8146C44.5267 42.2044 43.4039 43.3288 42.0167 43.3288C41.9794 43.3288 41.9388 43.3288 41.8988 43.3262C41.3971 43.3025 40.9323 43.1319 40.5506 42.854C40.5491 42.854 40.5491 42.8524 40.5475 42.8524C39.9173 42.397 39.5062 41.6542 39.5062 40.8146V46.5237C39.5062 47.2175 39.2256 47.8466 38.7718 48.3004C38.6776 48.3952 38.5744 48.4825 38.4649 48.5615C38.0512 48.8616 37.5447 49.0379 36.9962 49.0379C36.4534 49.0379 35.9518 48.8658 35.5422 48.5731C34.9842 48.1746 34.5967 47.5539 34.5083 46.8385V49.0116C34.5083 49.706 34.2261 50.3361 33.7723 50.7899C33.6765 50.8873 33.5707 50.9762 33.4602 51.0552C33.049 51.3526 32.5437 51.5274 31.9978 51.5274C31.4497 51.5274 30.9412 51.351 30.5274 51.0499C29.8973 50.5946 29.4862 49.8518 29.4862 49.0116V46.5237C29.4862 47.3623 29.0756 48.1061 28.4449 48.5615C28.0327 48.8616 27.5257 49.0379 26.9762 49.0379C25.5901 49.0379 24.4656 47.9119 24.4656 46.5237V32.1148L24.4172 32.1233C23.687 32.1233 22.9969 31.9522 22.3831 31.6484C20.8685 30.8972 19.8257 29.3327 19.8257 27.5249V20.8061C19.8257 19.5153 20.3379 18.2782 21.2486 17.3643L23.348 15.2612C23.955 14.6532 24.3977 13.9115 24.6462 13.1034C24.802 12.6038 24.881 12.0774 24.881 11.5541V10.0559H42.0162V11.9705C42.0162 12.3996 42.0625 12.8523 42.1815 13.2655C42.3816 14.0615 42.7706 14.8043 43.3186 15.4302C44.0909 16.312 44.5267 17.4685 44.5267 18.643Z" fill="#FEDFC5"/>
<path d="M44.5268 18.643V40.8146C44.5268 42.2044 43.4039 43.3288 42.0168 43.3288C41.9794 43.3288 41.9389 43.3288 41.8989 43.3262C41.3972 43.3025 40.9323 43.1319 40.5507 42.854L40.5933 21.4894C40.5933 21.3604 40.5644 21.1562 40.5102 20.8966C39.5521 16.2299 35.6133 13.1034 30.8497 13.1034H24.6462C24.8021 12.6033 24.881 12.0774 24.881 11.5541V10.0559H42.0163V11.9705C42.0163 12.3996 42.0626 12.8523 42.1816 13.2655C42.3816 14.0615 42.7706 14.8043 43.3186 15.4302C44.0909 16.312 44.5268 17.4685 44.5268 18.643Z" fill="#FECBAA"/>
<path d="M43.13 10.0564H23.6795C23.0389 10.0564 22.5193 9.53677 22.5193 8.89611V1.96884C22.5193 1.32818 23.0389 0.808594 23.6795 0.808594H43.13C43.7707 0.808594 44.2902 1.32818 44.2902 1.96884V8.89611C44.2902 9.53677 43.7707 10.0564 43.13 10.0564Z" fill="#83D9FF"/>
<path d="M28.0164 5.43275C28.0164 4.85737 27.551 4.39148 26.9767 4.39148C26.4024 4.39148 25.937 4.85737 25.937 5.43275C25.937 6.00761 26.4024 6.47403 26.9767 6.47403C27.551 6.47403 28.0164 6.00761 28.0164 5.43275Z" fill="#5186FF"/>
<path d="M40.5482 29.2116V42.8524C39.9175 42.397 39.5064 41.6542 39.5064 40.814V46.5232C39.5064 47.2175 39.2263 47.8466 38.772 48.3004C38.6778 48.3951 38.5751 48.4825 38.4651 48.5615V29.2116C38.4651 28.6367 38.932 28.1703 39.5064 28.1703C40.0812 28.1703 40.5482 28.6367 40.5482 29.2116Z" fill="#FECBAA"/>
<path d="M35.543 29.2116V48.5725C34.9845 48.174 34.5975 47.5534 34.5086 46.8385V49.0116C34.5086 49.7054 34.2269 50.3361 33.7726 50.7899C33.6768 50.8872 33.5715 50.9757 33.4604 51.0552V29.2116C33.4604 28.6367 33.9269 28.1703 34.5017 28.1703C35.0766 28.1703 35.543 28.6367 35.543 29.2116Z" fill="#FECBAA"/>
<path d="M30.5276 29.2116V51.0494C29.8975 50.594 29.4863 49.8512 29.4863 49.0116V46.5232C29.4863 47.3618 29.0757 48.1061 28.4451 48.5615V29.2116C28.4451 28.6367 28.912 28.1703 29.4863 28.1703C30.0628 28.1703 30.5276 28.6367 30.5276 29.2116Z" fill="#FECBAA"/>
<path d="M24.4663 27.1537V32.1148L24.4174 32.1227C23.6872 32.1227 22.9971 31.9521 22.3838 31.6483V27.1537C22.3838 26.5788 22.8502 26.1124 23.4251 26.1124C24.001 26.1124 24.4663 26.5788 24.4663 27.1537Z" fill="#FECBAA"/>
</svg>
