<svg width="695" height="501" viewBox="0 0 695 501" fill="none" xmlns="http://www.w3.org/2000/svg">
<g clip-path="url(#clip0)">
<path opacity="0.1" d="M7.50684 272.37C18.5042 319.373 41.7849 360.004 78.5715 379.723C155.04 420.651 327.482 399.538 456.175 375.289C521.206 363.077 580.235 329.335 623.758 279.497L7.50684 272.37Z" fill="#6C63FF"/>
<path opacity="0.1" d="M682.394 51.1268H611.779C610.161 51.1268 608.609 50.4841 607.465 49.3401C606.321 48.1961 605.678 46.6445 605.678 45.0266C605.678 43.4087 606.321 41.8571 607.465 40.7131C608.609 39.569 610.161 38.9263 611.779 38.9263H623.986C622.401 38.8753 620.899 38.2099 619.796 37.0708C618.693 35.9318 618.076 34.4084 618.076 32.8229C618.076 31.2374 618.693 29.714 619.796 28.575C620.899 27.436 622.401 26.7705 623.986 26.7195H615.269C613.685 26.6684 612.182 26.003 611.079 24.864C609.976 23.7249 609.359 22.2016 609.359 20.6161C609.359 19.0306 609.976 17.5072 611.079 16.3682C612.182 15.2291 613.685 14.5637 615.269 14.5127H652.126C643.947 10.7119 634.388 8.00698 623.372 6.58802C522.875 -6.31563 486.994 2.22346 474.337 11.0223C458.722 21.8545 441.301 29.8235 422.683 33.6623C360.677 46.4519 244.717 61.845 139.615 28.7339C87.3772 12.2639 48.5571 40.0856 25.2827 86.5565H694.652C693.778 73.051 691.161 60.5845 686.359 49.6635C685.256 50.6117 683.849 51.1312 682.394 51.1268Z" fill="#6C63FF"/>
<path opacity="0.1" d="M1.51419 174.266C-1.19797 201.601 -0.277747 229.174 4.25086 256.268L624.233 278.946C641.493 259.092 655.984 236.993 667.31 213.249L1.51419 174.266ZM246.725 232.76H234.518C236.135 232.76 237.687 233.403 238.831 234.547C239.975 235.691 240.618 237.242 240.618 238.86C240.618 240.478 239.975 242.03 238.831 243.174C237.687 244.318 236.135 244.96 234.518 244.96H163.903C162.285 244.96 160.733 244.318 159.589 243.174C158.445 242.03 157.802 240.478 157.802 238.86C157.802 237.242 158.445 235.691 159.589 234.547C160.733 233.403 162.285 232.76 163.903 232.76H176.11C174.525 232.709 173.022 232.043 171.919 230.904C170.816 229.765 170.2 228.242 170.2 226.656C170.2 225.071 170.816 223.548 171.919 222.408C173.022 221.269 174.525 220.604 176.11 220.553H167.393C165.808 220.502 164.306 219.837 163.203 218.697C162.1 217.558 161.483 216.035 161.483 214.45C161.483 212.864 162.1 211.341 163.203 210.202C164.306 209.063 165.808 208.397 167.393 208.346H238.008C239.593 208.397 241.096 209.063 242.199 210.202C243.302 211.341 243.918 212.864 243.918 214.45C243.918 216.035 243.302 217.558 242.199 218.697C241.096 219.837 239.593 220.502 238.008 220.553H246.725C248.31 220.604 249.812 221.269 250.915 222.408C252.018 223.548 252.635 225.071 252.635 226.656C252.635 228.242 252.018 229.765 250.915 230.904C249.812 232.043 248.31 232.709 246.725 232.76Z" fill="#6C63FF"/>
<path opacity="0.1" d="M694.683 86.9619L17.8135 103.432C9.57818 124.596 4.14919 148.509 1.61523 173.322H682.824C687.27 158.753 690.56 143.857 692.662 128.77C694.69 114.194 695.5 100.094 694.683 86.9619ZM139.032 140.908H126.824C127.625 140.908 128.419 141.065 129.159 141.372C129.899 141.679 130.571 142.128 131.138 142.694C131.704 143.261 132.154 143.933 132.46 144.673C132.767 145.414 132.925 146.207 132.925 147.008C132.925 147.809 132.767 148.602 132.46 149.342C132.154 150.082 131.704 150.755 131.138 151.321C130.571 151.888 129.899 152.337 129.159 152.644C128.419 152.95 127.625 153.108 126.824 153.108H56.2093C54.5913 153.108 53.0396 152.465 51.8956 151.321C50.7515 150.177 50.1088 148.626 50.1088 147.008C50.1088 145.39 50.7515 143.838 51.8956 142.694C53.0396 141.55 54.5913 140.908 56.2093 140.908H68.4166C66.8318 140.857 65.3291 140.191 64.2261 139.052C63.1231 137.913 62.5064 136.39 62.5064 134.804C62.5064 133.219 63.1231 131.695 64.2261 130.556C65.3291 129.417 66.8318 128.752 68.4166 128.701H59.6998C58.115 128.65 56.6123 127.984 55.5093 126.845C54.4063 125.706 53.7896 124.183 53.7896 122.597C53.7896 121.012 54.4063 119.489 55.5093 118.349C56.6123 117.21 58.115 116.545 59.6998 116.494H130.315C131.899 116.545 133.402 117.21 134.505 118.349C135.608 119.489 136.225 121.012 136.225 122.597C136.225 124.183 135.608 125.706 134.505 126.845C133.402 127.984 131.899 128.65 130.315 128.701H139.032C140.616 128.752 142.119 129.417 143.222 130.556C144.325 131.695 144.942 133.219 144.942 134.804C144.942 136.39 144.325 137.913 143.222 139.052C142.119 140.191 140.616 140.857 139.032 140.908Z" fill="#6C63FF"/>
<path opacity="0.1" d="M357.047 501C479.09 501 578.026 495.645 578.026 489.04C578.026 482.435 479.09 477.08 357.047 477.08C235.003 477.08 136.067 482.435 136.067 489.04C136.067 495.645 235.003 501 357.047 501Z" fill="#6C63FF"/>
<path d="M540.498 401.096C540.498 401.096 543.976 405.651 538.889 412.499C533.803 419.347 529.609 425.168 531.288 429.457C531.288 429.457 538.959 416.692 545.224 416.515C551.489 416.338 547.365 408.774 540.498 401.096Z" fill="#6C63FF"/>
<path opacity="0.1" d="M540.499 401.096C540.799 401.537 541.037 402.017 541.208 402.522C547.302 409.686 550.546 416.369 544.692 416.534C539.232 416.692 532.688 426.448 531.123 428.912C531.173 429.103 531.234 429.292 531.307 429.476C531.307 429.476 538.978 416.711 545.244 416.534C551.509 416.357 547.366 408.774 540.499 401.096Z" fill="black"/>
<path d="M546.967 406.899C546.967 408.502 546.789 409.8 546.568 409.8C546.346 409.8 546.162 408.502 546.162 406.899C546.162 405.296 546.39 406.05 546.612 406.05C546.834 406.05 546.967 405.296 546.967 406.899Z" fill="#FFD037"/>
<path d="M549.184 408.812C547.777 409.579 546.555 410.041 546.447 409.845C546.339 409.648 547.397 408.869 548.804 408.103C550.21 407.336 549.652 407.894 549.76 408.103C549.868 408.312 550.59 408.046 549.184 408.812Z" fill="#FFD037"/>
<path d="M522.115 401.096C522.115 401.096 518.637 405.651 523.724 412.499C528.81 419.347 532.998 425.168 531.325 429.457C531.325 429.457 523.648 416.692 517.389 416.515C511.13 416.338 515.241 408.774 522.115 401.096Z" fill="#6C63FF"/>
<path opacity="0.1" d="M522.115 401.096C521.812 401.535 521.573 402.015 521.405 402.522C515.311 409.686 512.061 416.369 517.921 416.534C523.375 416.692 529.957 426.448 531.49 428.912C531.439 429.102 531.376 429.286 531.306 429.476C531.306 429.476 523.629 416.711 517.37 416.534C511.111 416.357 515.241 408.774 522.115 401.096Z" fill="black"/>
<path d="M515.647 406.899C515.647 408.502 515.824 409.8 516.046 409.8C516.268 409.8 516.452 408.502 516.452 406.899C516.452 405.296 516.223 406.05 516.002 406.05C515.78 406.05 515.647 405.296 515.647 406.899Z" fill="#FFD037"/>
<path d="M513.423 408.812C514.829 409.579 516.058 410.041 516.166 409.845C516.274 409.648 515.216 408.869 513.81 408.103C512.403 407.336 512.961 407.894 512.853 408.103C512.745 408.312 512.017 408.046 513.423 408.812Z" fill="#FFD037"/>
<path d="M516.755 428.88C516.755 428.88 526.486 428.576 529.425 426.492C532.364 424.408 544.394 421.906 545.123 425.225C545.851 428.544 559.744 441.879 548.759 441.968C537.774 442.056 523.236 440.257 520.309 438.477C517.383 436.697 516.755 428.88 516.755 428.88Z" fill="#A8A8A8"/>
<path opacity="0.2" d="M548.949 440.834C537.965 440.922 523.426 439.123 520.499 437.343C518.269 435.981 517.383 431.11 517.085 428.867H516.762C516.762 428.867 517.395 436.71 520.303 438.496C523.211 440.283 537.768 442.075 548.753 441.986C551.92 441.986 553.023 440.834 552.959 439.161C552.516 440.187 551.306 440.815 548.949 440.834Z" fill="black"/>
<path d="M170.554 432.44C171.716 431.491 172.565 430.213 172.986 428.772C173.297 427.322 172.676 425.605 171.289 425.041C169.73 424.446 168.064 425.529 166.797 426.619C165.53 427.708 164.092 428.956 162.439 428.722C163.289 427.952 163.925 426.975 164.285 425.885C164.645 424.796 164.716 423.632 164.491 422.508C164.419 422.041 164.222 421.604 163.921 421.241C163.053 420.316 161.489 420.709 160.45 421.437C157.156 423.755 156.237 428.234 156.218 432.257C155.889 430.806 156.167 429.292 156.161 427.822C156.155 426.353 155.743 424.655 154.489 423.876C153.71 423.46 152.837 423.255 151.955 423.28C150.472 423.223 148.825 423.375 147.812 424.452C146.545 425.802 146.88 428.057 147.976 429.52C149.072 430.983 150.732 431.933 152.259 432.953C153.487 433.684 154.535 434.682 155.325 435.874C155.414 436.043 155.491 436.218 155.553 436.399H164.833C166.91 435.344 168.834 434.012 170.554 432.44V432.44Z" fill="#013982"/>
<path d="M96.7971 442.436C96.7971 442.436 87.8903 412.214 98.4632 389.973C102.964 380.67 104.324 370.158 102.34 360.016C101.361 355.213 99.9425 350.51 98.1021 345.966" stroke="#535461" stroke-width="2" stroke-miterlimit="10"/>
<path d="M104.659 331.903C104.659 335.609 97.9562 346.353 97.9562 346.353C97.9562 346.353 91.2476 335.584 91.2476 331.903C91.3011 330.161 92.0311 328.507 93.2828 327.294C94.5344 326.08 96.2095 325.401 97.953 325.401C99.6966 325.401 101.372 326.08 102.623 327.294C103.875 328.507 104.605 330.161 104.659 331.903Z" fill="#6C63FF"/>
<path d="M115.745 352.421C113.737 355.531 102.264 360.903 102.264 360.903C102.264 360.903 102.473 348.234 104.488 345.13C105.478 343.69 106.99 342.693 108.704 342.352C110.417 342.01 112.197 342.35 113.663 343.3C115.13 344.25 116.168 345.734 116.556 347.438C116.945 349.141 116.654 350.929 115.745 352.421Z" fill="#6C63FF"/>
<path d="M115.263 387.483C111.956 389.149 99.3438 387.996 99.3438 387.996C99.3438 387.996 105.919 377.171 109.226 375.505C110.015 375.087 110.879 374.831 111.768 374.751C112.657 374.672 113.552 374.77 114.403 375.041C115.253 375.312 116.041 375.75 116.72 376.329C117.399 376.908 117.955 377.617 118.357 378.414C118.758 379.211 118.997 380.08 119.059 380.97C119.12 381.86 119.003 382.754 118.715 383.598C118.427 384.443 117.974 385.222 117.381 385.889C116.788 386.556 116.068 387.098 115.263 387.483Z" fill="#6C63FF"/>
<path d="M108.922 413.93C105.945 416.135 93.3193 417.098 93.3193 417.098C93.3193 417.098 97.9691 405.322 100.921 403.117C101.624 402.541 102.437 402.114 103.31 401.861C104.182 401.609 105.098 401.536 106 401.648C106.901 401.76 107.771 402.054 108.556 402.512C109.341 402.97 110.024 403.583 110.565 404.313C111.106 405.043 111.493 405.876 111.702 406.76C111.912 407.644 111.939 408.562 111.783 409.457C111.627 410.352 111.291 411.207 110.795 411.968C110.298 412.729 109.653 413.382 108.897 413.886L108.922 413.93Z" fill="#6C63FF"/>
<path d="M88.1876 361.619C90.842 364.197 103.22 366.877 103.22 366.877C103.22 366.877 100.186 354.581 97.5189 351.997C96.8927 351.357 96.1447 350.849 95.3189 350.502C94.4932 350.156 93.6065 349.978 92.711 349.98C91.8156 349.982 90.9296 350.163 90.1052 350.512C89.2807 350.862 88.5347 351.373 87.9109 352.015C87.2871 352.657 86.7982 353.418 86.473 354.252C86.1479 355.087 85.9931 355.978 86.0177 356.873C86.0423 357.768 86.2458 358.649 86.6164 359.464C86.9869 360.279 87.5168 361.012 88.175 361.619H88.1876Z" fill="#6C63FF"/>
<path d="M81.1627 392.64C84.4695 394.306 97.0822 393.153 97.0822 393.153C97.0822 393.153 90.5066 382.333 87.1998 380.661C85.6163 379.903 83.7986 379.795 82.1368 380.362C80.475 380.929 79.1017 382.124 78.3115 383.692C77.5214 385.26 77.3774 387.075 77.9104 388.748C78.4435 390.421 79.6111 391.818 81.1627 392.64Z" fill="#6C63FF"/>
<path d="M78.4763 423.73C81.4537 425.928 94.0728 426.897 94.0728 426.897C94.0728 426.897 89.4294 415.121 86.471 412.917C85.0383 411.961 83.293 411.593 81.5964 411.889C79.8999 412.184 78.382 413.121 77.357 414.505C76.3321 415.889 75.8787 417.614 76.0905 419.323C76.3024 421.032 77.1635 422.594 78.4954 423.686L78.4763 423.73Z" fill="#6C63FF"/>
<path d="M104.659 331.903C104.659 335.609 97.9562 346.353 97.9562 346.353C97.9562 346.353 91.2476 335.584 91.2476 331.903C91.3011 330.161 92.0311 328.507 93.2828 327.294C94.5344 326.08 96.2095 325.401 97.953 325.401C99.6966 325.401 101.372 326.08 102.623 327.294C103.875 328.507 104.605 330.161 104.659 331.903V331.903Z" fill="#013982"/>
<path d="M115.745 352.421C113.737 355.531 102.264 360.903 102.264 360.903C102.264 360.903 102.473 348.234 104.488 345.13C105.478 343.69 106.99 342.693 108.704 342.352C110.417 342.01 112.197 342.35 113.663 343.3C115.13 344.25 116.168 345.734 116.556 347.438C116.945 349.141 116.654 350.929 115.745 352.421V352.421Z" fill="#013982"/>
<path d="M115.263 387.483C111.956 389.149 99.3438 387.996 99.3438 387.996C99.3438 387.996 105.919 377.171 109.226 375.505C110.015 375.087 110.879 374.831 111.768 374.751C112.657 374.672 113.552 374.77 114.403 375.041C115.253 375.312 116.041 375.75 116.72 376.329C117.399 376.908 117.955 377.617 118.357 378.414C118.758 379.211 118.997 380.08 119.059 380.97C119.12 381.86 119.003 382.754 118.715 383.598C118.427 384.443 117.974 385.222 117.381 385.889C116.788 386.556 116.068 387.098 115.263 387.483V387.483Z" fill="#013982"/>
<path d="M108.922 413.93C105.945 416.135 93.3193 417.098 93.3193 417.098C93.3193 417.098 97.9691 405.322 100.921 403.117C101.624 402.541 102.437 402.114 103.31 401.861C104.182 401.609 105.098 401.536 106 401.648C106.901 401.76 107.771 402.054 108.556 402.512C109.341 402.97 110.024 403.583 110.565 404.313C111.106 405.043 111.493 405.876 111.702 406.76C111.912 407.644 111.939 408.562 111.783 409.457C111.627 410.352 111.291 411.207 110.795 411.968C110.298 412.729 109.653 413.382 108.897 413.886L108.922 413.93Z" fill="#013982"/>
<path d="M88.1876 361.619C90.842 364.197 103.22 366.877 103.22 366.877C103.22 366.877 100.186 354.581 97.5189 351.997C96.8927 351.357 96.1447 350.849 95.3189 350.502C94.4932 350.156 93.6065 349.978 92.711 349.98C91.8156 349.982 90.9296 350.163 90.1052 350.512C89.2807 350.862 88.5347 351.373 87.9109 352.015C87.2871 352.657 86.7982 353.418 86.473 354.252C86.1479 355.087 85.9931 355.978 86.0177 356.873C86.0423 357.768 86.2458 358.649 86.6164 359.464C86.9869 360.279 87.5168 361.012 88.175 361.619H88.1876Z" fill="#013982"/>
<path d="M81.1627 392.64C84.4695 394.306 97.0822 393.153 97.0822 393.153C97.0822 393.153 90.5066 382.333 87.1998 380.661C85.6163 379.903 83.7986 379.795 82.1368 380.362C80.475 380.929 79.1017 382.124 78.3115 383.692C77.5214 385.26 77.3774 387.075 77.9104 388.748C78.4435 390.421 79.6111 391.818 81.1627 392.64Z" fill="#013982"/>
<path d="M78.4763 423.73C81.4537 425.928 94.0728 426.897 94.0728 426.897C94.0728 426.897 89.4294 415.121 86.471 412.917C85.0383 411.961 83.293 411.593 81.5964 411.889C79.8999 412.184 78.382 413.121 77.357 414.505C76.3321 415.889 75.8787 417.614 76.0905 419.323C76.3024 421.032 77.1635 422.594 78.4954 423.686L78.4763 423.73Z" fill="#013982"/>
<path d="M75.7334 440.536C75.7334 440.536 86.5787 438.382 89.4674 435.513C92.3561 432.643 105.368 427.62 106.812 431.205C108.257 434.79 126.324 446.991 114.034 449.145C101.744 451.299 85.128 452.014 81.5172 450.576C77.9063 449.138 75.7334 440.536 75.7334 440.536Z" fill="#A8A8A8"/>
<path opacity="0.2" d="M114.053 447.802C101.77 449.955 85.147 450.671 81.5362 449.24C78.7868 448.144 76.8737 442.905 76.1198 440.454L75.7334 440.536C75.7334 440.536 77.9063 449.145 81.5172 450.576C85.128 452.008 101.751 451.292 114.034 449.145C117.582 448.511 118.595 447.061 118.215 445.217C117.93 446.414 116.695 447.339 114.053 447.802Z" fill="black"/>
<path d="M458.816 165.955C462.218 162.154 460.888 156.231 460.888 156.231C460.888 156.231 444.835 115.322 443.055 114.872C441.275 114.423 436.809 104.103 436.809 104.103C436.809 104.103 394.004 63.416 392.465 63.416C390.926 63.416 375.297 52.1784 373.296 51.9567C371.294 51.735 368.164 50.6074 364.819 48.7894C361.475 46.9713 327.583 49.0174 326.246 50.5884C324.91 52.1594 318.645 53.2869 318.645 53.2869C318.645 53.2869 305.937 53.9584 304.15 56.2072C302.364 58.456 289.219 59.6469 289.219 59.6469C289.219 59.6469 282.751 62.0541 291.531 68.4457C288.719 68.8892 285.431 69.2312 282.092 69.4719C281.256 69.529 280.407 69.586 279.558 69.6303H279.058C278.497 67.9353 277.404 66.4666 275.941 65.4431C274.985 64.9238 273.996 64.4647 272.983 64.0685C271.413 63.2337 269.942 62.2243 268.599 61.0596C262.1 55.8913 255.164 51.2963 247.871 47.3261C246.745 46.6212 245.489 46.1495 244.178 45.9388C241.46 45.6791 239.034 47.5858 236.373 48.2256C231.698 49.3468 226.985 46.4962 222.177 46.4519C216.171 46.3949 210.704 51.0698 208.874 56.8343C208.196 58.9691 207.892 61.3446 206.428 63.036C204.528 65.2468 201.316 65.5698 198.712 66.8811C196.826 67.8651 195.245 69.3472 194.142 71.1664C193.038 72.9857 192.454 75.0725 192.454 77.2002V77.2509C192.454 77.5866 192.454 77.9224 192.511 78.2581C192.808 80.9693 194.063 83.4715 194.981 86.0434C195.925 88.6786 196.521 91.4256 196.755 94.215C196.758 94.2445 196.758 94.2742 196.755 94.3037C196.793 94.7661 196.825 95.2286 196.844 95.6973C196.844 95.7924 196.844 95.8937 196.844 95.9951C196.844 96.4385 196.844 96.8883 196.844 97.338C196.844 99.7578 196.761 102.197 196.768 104.617V104.743V105.839C196.768 105.928 196.768 106.016 196.768 106.105C196.768 106.428 196.768 106.739 196.806 107.081V107.423C196.806 107.72 196.85 108.025 196.882 108.322C196.882 108.449 196.882 108.582 196.913 108.709C196.913 109 196.983 109.285 197.021 109.57L197.078 109.976C197.122 110.261 197.173 110.546 197.224 110.831L197.3 111.224C197.363 111.528 197.439 111.857 197.515 112.136C197.547 112.243 197.566 112.345 197.591 112.452C197.705 112.875 197.832 113.28 197.971 113.669C198.92 116.329 200.486 118.725 202.541 120.662C204.596 122.6 207.081 124.021 209.792 124.811C210.813 125.093 211.869 125.225 212.928 125.204C214.828 125.16 216.647 124.571 217.774 123.272C218.053 123.589 218.325 123.905 218.617 124.222C222.748 128.715 227.903 132.146 233.643 134.224C239.383 136.301 245.539 136.964 251.589 136.156C257.64 135.347 263.406 133.092 268.4 129.581C273.393 126.07 277.467 121.407 280.274 115.987C280.939 115.841 281.598 115.708 282.263 115.582C283.416 115.366 284.576 115.164 285.741 114.948L286.862 114.771L287.306 114.695C293.007 113.795 298.544 113.194 302.51 112.795L286.837 114.739C286.837 114.739 283.036 132.989 281.94 135.01C280.844 137.031 285.741 140.401 285.741 140.401C285.741 140.401 289.979 145.57 289.979 147.147C289.979 148.725 294.882 153.216 296.219 155.686C296.389 156 296.602 156.288 296.852 156.542C295.863 156.924 294.949 157.48 294.154 158.182C291.056 161.115 292.089 166.259 290.67 170.288C289.783 172.822 287.927 174.874 286.14 176.869C285.499 177.521 284.96 178.266 284.544 179.08C284.312 179.619 284.168 180.193 284.119 180.778C284.088 181.102 284.075 181.428 284.081 181.753V181.867C284.081 182.121 284.081 182.368 284.132 182.615C284.132 182.723 284.132 182.83 284.132 182.938C284.442 185.586 285.342 188.145 285.614 190.793C285.887 193.441 285.557 196.108 286.102 198.686C286.291 199.585 286.584 200.459 286.976 201.289L277.905 211.425C277.905 211.425 277.848 211.925 277.829 212.749C270.265 219.026 258.571 230.872 262.745 241.318C263.202 242.462 263.624 243.558 264.012 244.606C260.94 246.563 259.926 248.888 264.532 251.206C265.26 251.574 265.964 251.89 266.654 252.176C269.017 259.112 269.942 261.044 273.901 255.932C274.326 255.375 274.82 254.665 275.358 253.899C280.933 253.785 284.157 251.206 284.157 251.206C284.157 251.206 299.76 250.307 303.796 252.784C305.816 254.051 310.568 254.304 314.774 254.272C314.717 258.804 314.929 263.335 315.407 267.841C315.407 267.841 314.736 286.946 316.522 290.994C318.309 295.042 319.297 302.01 319.297 302.01C319.297 302.01 316.301 308.75 318.081 312.348C319.861 315.946 316.522 321.115 316.522 321.115V334.374L317.789 334.285C317.694 335.178 317.574 336.116 317.416 337.009C317.048 339.08 316.497 340.936 315.648 341.538C313.418 343.141 313.196 351.674 313.196 351.674C313.196 351.674 309.63 362.018 310.295 363.817C310.96 365.616 306.063 369.208 307.178 371.906C308.293 374.605 310.574 391.683 312.557 396.612C314.54 401.54 308.515 400.21 308.515 400.21L310.295 413.018C310.295 413.018 312.082 426.055 310.745 426.954C309.408 427.854 301.718 434.372 307.007 438.192C307.419 438.49 307.837 438.762 308.274 439.022C308.298 439.614 308.283 440.206 308.23 440.796C308.129 441.803 307.875 442.607 307.311 442.696C305.74 442.924 302.617 444.495 301.958 443.824C301.3 443.152 297.524 445.521 293.723 446.294L293.197 446.376L288.262 445.11C281.122 442.39 273.285 442.1 265.964 444.286C265.964 444.286 262.384 444.843 260.649 447.517C259.768 448.885 259.382 450.811 260.167 453.497C262.549 461.44 278.785 464.177 278.785 464.177C278.785 464.177 284.411 465.336 291.17 466.869C290.948 466.869 290.72 466.869 290.492 466.869C288.627 466.856 286.824 467.543 285.44 468.794C284.056 470.045 283.192 471.77 283.017 473.627C282.843 475.484 283.371 477.34 284.497 478.827C285.624 480.314 287.267 481.325 289.102 481.659C290.937 481.994 292.832 481.629 294.411 480.636C295.99 479.643 297.139 478.093 297.632 476.294C298.125 474.495 297.925 472.576 297.073 470.917C296.22 469.258 294.776 467.978 293.026 467.331C300.628 469.08 309.047 471.208 312.468 472.71C315.015 473.669 317.625 474.452 320.279 475.053C320.41 476.625 321.039 478.115 322.075 479.305C323.111 480.495 324.499 481.323 326.038 481.669C327.577 482.015 329.187 481.861 330.633 481.23C332.078 480.598 333.285 479.522 334.076 478.157C344.421 480.317 354.386 482.148 354.386 482.148L371.028 482.421H371.142C369.18 482.434 367.304 483.224 365.925 484.618C364.545 486.012 363.774 487.896 363.781 489.857C363.787 491.818 364.571 493.697 365.96 495.082C367.35 496.466 369.231 497.243 371.192 497.243C373.154 497.243 375.035 496.466 376.424 495.082C377.814 493.697 378.597 491.818 378.604 489.857C378.611 487.896 377.84 486.012 376.46 484.618C375.08 483.224 373.204 482.434 371.243 482.421L396.437 482.832C396.134 483.858 396.057 484.936 396.209 485.994C396.361 487.052 396.739 488.065 397.318 488.963C397.897 489.862 398.662 490.625 399.563 491.201C400.463 491.777 401.477 492.152 402.536 492.301C403.594 492.45 404.673 492.368 405.697 492.063C406.721 491.757 407.668 491.234 408.471 490.53C409.275 489.825 409.918 488.956 410.356 487.981C410.793 487.005 411.015 485.947 411.007 484.878C411.006 484.267 410.929 483.659 410.779 483.067L433.002 483.428L437.436 478.55C437.684 478.076 437.833 477.557 437.873 477.023C438.006 475.421 437.177 472.988 431.5 471.956C431.082 471.88 419.502 472.063 409.271 472.234V468.218C409.271 468.218 408.986 466.007 408.809 463.404C408.758 462.637 408.714 461.839 408.695 461.054C409.274 461.45 409.917 461.744 410.595 461.922C414.833 462.599 420.63 450.234 420.63 450.234C420.63 450.234 420.63 443.266 421.966 437.647C423.303 432.029 425.767 413.145 425.767 413.145L431.127 390.448C431.127 390.448 433.344 344.142 432.229 342.343C431.114 340.544 433.572 337.395 433.572 337.395C433.572 337.395 435.352 327.507 432.679 324.137C430.005 320.767 434.237 317.391 434.237 317.391C434.237 317.391 435.352 305.703 432.229 301.212C429.106 296.721 433.692 293.572 433.692 293.572L434.807 275.367C439.489 270.647 443.72 242.553 443.949 236.485C444.007 233.069 444.766 229.701 446.178 226.59C446.178 226.59 449.295 221.871 449.745 218.722C450.195 215.574 453.546 209.062 453.546 209.062L459.342 187.48C461.68 178.776 461.084 172.34 459.532 167.754C459.304 167.108 459.064 166.519 458.816 165.955ZM354.094 167.222C357.661 169.471 356.546 170.142 357.661 171.491C358.776 172.841 357.883 172.612 356.99 174.861C356.096 177.11 356.768 176.439 357.211 178.909C357.655 181.38 357.439 181.38 357.439 181.38L358.554 181.538L357.002 191.971C354.468 193.624 353.309 196.792 352.783 200.06C351.288 198.109 349.78 196.082 348.431 194.195C348.894 193.162 348.805 191.933 348.818 190.774C348.868 186.973 350.287 183.343 350.94 179.6C351.606 175.791 351.483 171.887 350.579 168.128C350.254 166.713 349.754 165.345 349.09 164.054C350.534 165.017 352.365 166.157 354.094 167.247V167.222ZM358.104 387.496C358.104 387.496 360.924 385.596 363.66 383.866C364.579 390.537 365.447 397.473 366.061 403.744C365.079 401.565 364.395 400.083 364.395 400.083C363.389 398.874 362.787 397.381 362.672 395.813C362.564 393.368 358.104 387.521 358.104 387.521V387.496ZM341.387 156.459C342.02 156.548 342.92 157.352 343.769 158.315C342.983 157.682 342.191 157.048 341.38 156.453L341.387 156.459ZM300.584 239.62C298.012 240.431 289.295 240.311 284.113 240.007C286.052 236.694 287.977 233.324 289.688 230.302C290.696 230.563 291.724 230.747 292.76 230.853L309.731 215.948C316.115 218.187 323.078 218.142 329.433 215.821L329.895 216.543C330.092 216.86 330.301 217.177 330.529 217.531L330.104 216.841C330.104 216.841 323.554 220.743 324.219 222.542C324.884 224.341 323.332 228.832 320.881 233.647C320.247 234.85 319.696 236.041 319.164 237.238C313.615 237.758 303.156 238.809 300.584 239.62ZM332.784 447.295L332.689 445.515C333.766 445.281 334.475 445.065 334.475 445.065C334.253 442.424 333.88 439.797 333.36 437.198C332.689 434.499 333.037 435.399 335.647 433.397C338.257 431.395 335.647 408.692 335.647 408.692C335.647 408.692 336.914 407.114 338.922 411.162C340.931 415.21 342.945 417.681 343.617 417.902C344.288 418.124 340.937 422.628 343.617 426.897C345.28 429.659 346.413 432.708 346.955 435.886C346.955 435.886 345.175 443.025 347.848 446.199C348.209 446.569 348.64 446.864 349.115 447.067C349.115 447.656 349.115 448.283 349.115 448.872C349.115 450.057 349.115 451.07 349.058 451.286C349.032 451.438 348.968 451.58 348.87 451.7C348.773 451.819 348.647 451.911 348.503 451.967C348.36 452.023 348.204 452.041 348.052 452.02C347.899 451.998 347.755 451.937 347.633 451.843C346.942 451.393 342.565 452.401 342.863 455.22C341.828 456.443 340.654 457.542 339.366 458.495L333.291 456.924L332.784 447.295Z" fill="url(#paint0_linear)"/>
<path d="M278.069 214.427C278.069 214.427 275.947 231.816 292.779 233.596L295.313 221.56L290.011 214.427L282.415 211.856L278.069 214.427Z" fill="#6C63FF"/>
<path opacity="0.1" d="M282.415 211.856L278.069 214.421C278.069 214.421 275.947 231.81 292.779 233.59" fill="black"/>
<path d="M308.61 116.108C308.61 116.108 297.252 116.804 285.862 118.692C284.696 118.891 283.537 119.102 282.384 119.326C281.712 119.452 281.053 119.585 280.395 119.731C274.427 120.96 268.992 122.556 265.824 124.596C262.023 127.035 260.756 120.466 260.636 111.338C260.585 108.126 260.693 104.604 260.864 101.044C261.086 96.9263 261.409 92.7581 261.751 89.008C262.505 80.6969 263.373 74.2356 263.373 74.2356C263.373 74.2356 267.351 74.2356 272.666 74.0519L274.376 73.9885C276.043 73.9252 277.81 73.8365 279.59 73.7288C280.433 73.6845 281.281 73.6338 282.124 73.5705C285.494 73.3297 288.82 72.9877 291.626 72.5442C294.616 72.0628 297.043 71.4547 298.36 70.6439C304.378 67.0585 308.61 116.108 308.61 116.108Z" fill="#F8BDC5"/>
<path d="M359.22 180.315L357.002 195.031C357.002 195.031 352.169 201.049 352.802 204.393C353.436 207.738 359.011 355.55 359.011 355.55C359.011 355.55 369.938 417.972 366.144 425.998C362.349 434.024 365.922 452.755 365.922 452.755L388.664 449.189L396.266 176.299L359.22 180.315Z" fill="#474463"/>
<path opacity="0.1" d="M359.22 180.315L357.002 195.031C357.002 195.031 352.169 201.049 352.802 204.393C353.436 207.738 359.011 355.55 359.011 355.55C359.011 355.55 369.938 417.972 366.144 425.998C362.349 434.024 365.922 452.755 365.922 452.755L388.664 449.189L396.266 176.299L359.22 180.315Z" fill="black"/>
<path d="M409.385 456.543C408.663 457.741 408.72 461.263 408.923 464.259C409.1 466.837 409.385 469.029 409.385 469.029V484.188C409.385 484.188 385.085 475.718 371.705 466.799C366.188 463.119 364.617 459.698 364.921 456.962C365.364 453.066 369.609 450.526 371.705 450.526C373.707 450.526 380.029 447.035 385.211 443.95C389.285 441.537 392.667 439.377 392.667 439.377C392.667 439.377 410.722 454.314 409.385 456.543Z" fill="#575988"/>
<path opacity="0.1" d="M409.385 456.543C408.663 457.741 408.72 461.263 408.923 464.259C403.519 461.725 386.789 445.496 385.211 443.95C389.285 441.537 392.668 439.377 392.668 439.377C392.668 439.377 410.722 454.314 409.385 456.543Z" fill="black"/>
<path d="M459.33 190.571L453.533 211.976C453.533 211.976 450.188 218.437 449.732 221.56C449.276 224.683 446.166 229.364 446.166 229.364C444.758 232.446 443.999 235.784 443.936 239.17C443.714 245.195 439.502 273.061 434.795 277.742L433.68 295.802C433.68 295.802 429.245 298.919 432.343 303.404C435.441 307.889 434.351 319.456 434.351 319.456C434.351 319.456 430.113 322.8 432.793 326.145C435.473 329.49 433.68 339.302 433.68 339.302C433.68 339.302 431.228 342.419 432.343 344.205C433.458 345.991 431.241 391.918 431.241 391.918L425.882 414.431C425.882 414.431 423.424 433.162 422.081 438.737C420.738 444.311 420.744 451.216 420.744 451.216C420.744 451.216 414.948 463.48 410.709 462.815C406.471 462.15 385.965 442.075 385.965 442.075L388.86 374.295C388.86 374.295 391.312 345.535 389.754 339.961C388.195 334.386 387.08 306.52 387.08 306.52L383.957 262.602L352.777 213.553C352.777 213.553 350.515 199.281 356.977 195.05L358.149 187.34L359.207 180.334L396.222 176.318L452.849 161.609C452.849 161.609 457.214 164.301 459.501 171.022C461.065 175.552 461.667 181.937 459.33 190.571Z" fill="#474463"/>
<path d="M360.803 213.123C360.803 213.123 334.494 245.429 335.609 236.402C336.306 230.733 332.708 223.809 329.908 219.432C328.255 216.828 326.886 215.124 326.886 215.124C326.886 215.124 342.939 185.7 343.832 189.71C344.117 190.977 345.973 193.884 348.361 197.204C353.398 204.159 360.803 213.123 360.803 213.123Z" fill="#FFC1C8"/>
<path opacity="0.3" d="M409.385 481.033V484.201C409.385 484.201 385.085 475.731 371.705 466.812C366.188 463.132 364.617 459.711 364.921 456.974C372.307 460.712 386.048 467.838 390.21 471.05C393.744 473.774 402.879 478.088 409.385 481.033Z" fill="white"/>
<path d="M403.665 493.063C407.769 493.063 411.096 489.736 411.096 485.632C411.096 481.528 407.769 478.202 403.665 478.202C399.561 478.202 396.234 481.528 396.234 485.632C396.234 489.736 399.561 493.063 403.665 493.063Z" fill="#474463"/>
<path d="M327.76 482.63C331.864 482.63 335.191 479.303 335.191 475.199C335.191 471.095 331.864 467.769 327.76 467.769C323.656 467.769 320.33 471.095 320.33 475.199C320.33 479.303 323.656 482.63 327.76 482.63Z" fill="#474463"/>
<path d="M437.988 477.841C437.946 478.37 437.797 478.885 437.551 479.355L433.116 484.188L371.136 483.193L354.469 482.921C354.469 482.921 319.386 476.536 312.551 473.558C305.715 470.581 278.843 465.133 278.843 465.133C278.843 465.133 262.613 462.409 260.231 454.535C259.426 451.869 259.832 449.962 260.712 448.606C262.442 445.952 266.027 445.395 266.027 445.395C273.351 443.231 281.181 443.52 288.326 446.218L392.218 472.944L393.827 473.356C393.827 473.356 430.861 472.665 431.608 472.798C437.291 473.837 438.121 476.251 437.988 477.841Z" fill="#013982"/>
<path opacity="0.3" d="M437.988 477.841C431.754 477.03 420.883 475.832 418.083 476.985C418.083 476.985 398.312 474.54 371.11 483.193L354.469 482.921C354.469 482.921 319.386 476.536 312.551 473.558C305.715 470.581 278.843 465.133 278.843 465.133C278.843 465.133 262.613 462.409 260.231 454.535C259.426 451.869 259.832 449.962 260.712 448.606C261.821 451.837 263.956 456.518 267.364 457.829C272.717 459.888 294.718 464.082 294.718 464.082L338.264 474.743C338.264 474.743 363.407 480.197 373.194 476.643C377.204 475.199 384.73 473.913 392.199 472.906L393.808 473.318C393.808 473.318 430.842 472.627 431.589 472.76C437.291 473.837 438.121 476.251 437.988 477.841Z" fill="white"/>
<path d="M377.85 469.815C377.797 470.748 377.681 471.678 377.502 472.595C377.502 472.595 352.872 473.476 340.05 471.576C336.509 471.05 334.507 469.916 333.512 468.56C333.068 467.92 332.793 467.178 332.712 466.403C332.632 465.627 332.748 464.844 333.05 464.126C333.192 463.713 333.372 463.314 333.589 462.935C334.545 461.263 336.015 460.078 336.819 460.237C339.049 460.686 342.875 456.113 342.875 456.113C342.571 453.319 346.961 452.312 347.646 452.768C347.768 452.862 347.912 452.923 348.064 452.945C348.217 452.966 348.372 452.948 348.516 452.892C348.659 452.836 348.786 452.744 348.883 452.624C348.98 452.505 349.045 452.362 349.071 452.211C349.115 452.002 349.128 450.994 349.128 449.816C349.128 447.852 349.071 445.382 349.071 445.382L373.828 448.391L374.81 453.123C375.709 457.342 376.963 463.138 377.502 465.121C377.876 466.655 377.994 468.241 377.85 469.815Z" fill="#474463"/>
<path opacity="0.1" d="M377.851 469.815C377.798 470.748 377.681 471.677 377.502 472.595C377.502 472.595 352.872 473.476 340.05 471.576C336.509 471.05 334.507 469.916 333.513 468.56C336.8 468.364 341.077 468.256 343.725 468.902C347.5 469.84 370.084 469.84 377.851 469.815Z" fill="black"/>
<path d="M333.563 462.922C333.59 463.151 333.554 463.383 333.46 463.593C333.365 463.803 333.214 463.983 333.025 464.113C329.908 466.521 314.951 463.904 314.951 463.904C314.951 463.904 284.392 462.004 279.824 458.887C279.412 458.616 279.068 458.254 278.817 457.829C276.917 454.396 283.796 448.632 284.392 448.632C284.987 448.632 293.204 447.51 293.755 447.403C297.556 446.636 301.357 444.28 301.99 444.951C302.624 445.623 305.791 444.058 307.337 443.836C307.901 443.754 308.16 442.956 308.255 441.936C308.345 440.556 308.298 439.17 308.116 437.799L332.524 444.368L332.74 448.258L333.443 461.206L333.532 462.796C333.547 462.837 333.558 462.879 333.563 462.922Z" fill="#474463"/>
<path opacity="0.1" d="M314.977 463.904C314.977 463.904 284.417 462.004 279.85 458.887C279.438 458.616 279.093 458.255 278.843 457.829C285.032 458.336 295.351 459.191 297.214 459.667C299.894 460.3 314.952 461.225 314.952 461.225H333.468L333.557 462.815C334.362 467.3 314.977 463.904 314.977 463.904Z" fill="black"/>
<path d="M290.549 482.63C294.653 482.63 297.98 479.303 297.98 475.199C297.98 471.095 294.653 467.769 290.549 467.769C286.446 467.769 283.119 471.095 283.119 475.199C283.119 479.303 286.446 482.63 290.549 482.63Z" fill="#474463"/>
<path d="M371.256 498.054C375.36 498.054 378.687 494.728 378.687 490.624C378.687 486.52 375.36 483.193 371.256 483.193C367.152 483.193 363.825 486.52 363.825 490.624C363.825 494.728 367.152 498.054 371.256 498.054Z" fill="#474463"/>
<path d="M295.681 222.453C295.681 222.453 294.274 224.987 292.159 228.75C287.091 237.695 277.975 253.55 274.053 258.567C268.479 265.7 268.929 259.017 262.904 244.08C258.432 232.969 272.197 220.255 279.558 214.478C282.092 212.47 283.866 211.311 283.866 211.311L295.681 222.453Z" fill="#F8BDC5"/>
<path d="M322.654 239.62C322.654 239.62 304.15 241.179 300.584 242.293C297.017 243.408 281.636 242.737 280.312 242.293C278.988 241.85 252.66 247.868 264.703 253.886C276.745 259.904 284.341 253.886 284.341 253.886C284.341 253.886 299.95 252.993 303.979 255.451C308.008 257.908 322.705 256.565 322.705 256.565L322.654 239.62Z" fill="#FFC1C8"/>
<path opacity="0.1" d="M284.215 103.179C286.495 109.013 285.07 114.093 282.384 119.307C275.656 120.573 269.328 122.315 265.805 124.577C255.771 131.045 263.354 74.1912 263.354 74.1912C263.354 74.1912 268.206 74.1912 274.357 73.9442C272.495 82.4453 279.552 91.2694 284.215 103.179Z" fill="black"/>
<path d="M284.785 101.912C284.773 111.249 281.324 120.256 275.096 127.213C268.867 134.171 260.296 138.592 251.016 139.634C241.736 140.675 232.398 138.265 224.782 132.862C217.166 127.459 211.805 119.441 209.723 110.338C207.641 101.236 208.983 91.6852 213.492 83.5085C218.002 75.3318 225.363 69.1012 234.173 66.0052C242.983 62.9093 252.624 63.1646 261.258 66.7225C269.892 70.2804 276.913 76.892 280.984 85.2959C283.492 90.4753 284.792 96.1567 284.785 101.912Z" fill="#F8BDC5"/>
<path opacity="0.1" d="M459.513 171.003C458.31 172.755 456.507 174.005 454.446 174.519C445.748 176.971 384.432 191.686 380.422 190.793C376.881 190.007 361.684 187.822 358.181 187.321L359.239 180.315L396.253 176.299L452.881 161.59C452.881 161.59 457.227 164.282 459.513 171.003Z" fill="black"/>
<path opacity="0.1" d="M308.61 116.108C301.363 116.542 294.142 117.345 286.976 118.515C287.078 118.189 287.065 117.837 286.938 117.52L301.762 115.689C301.762 115.689 299.596 80.8489 291.626 72.4999C294.616 72.0185 297.043 71.4103 298.36 70.5995C304.378 67.0584 308.61 116.108 308.61 116.108Z" fill="black"/>
<path d="M289.219 63.7834C289.219 63.7834 302.376 62.5989 304.156 60.3691C305.937 58.1393 318.651 57.4741 318.651 57.4741C318.651 57.4741 324.891 56.3593 326.253 54.7946C327.615 53.2299 361.474 51.2282 364.819 53.0146C368.164 54.8009 371.287 55.9095 373.295 56.1375C375.303 56.3656 390.906 67.5019 392.465 67.5019C394.023 67.5019 436.809 107.86 436.809 107.86C436.809 107.86 441.243 118.116 443.055 118.559C444.867 119.002 460.894 159.582 460.894 159.582C460.894 159.582 463.124 169.388 454.433 171.846C445.741 174.304 384.419 189.013 380.409 188.12C376.399 187.226 357.445 184.553 357.445 184.553C357.445 184.553 357.667 184.553 357.224 182.102C356.78 179.65 356.109 180.315 356.996 178.086C357.883 175.856 358.782 176.078 357.667 174.741C356.552 173.404 357.667 172.733 354.101 170.503C350.534 168.273 346.499 165.822 346.296 165.157C346.093 164.491 342.951 160.026 341.393 159.804C339.834 159.582 296.13 147.318 296.13 147.318L285.874 143.974C285.874 143.974 280.971 140.629 282.073 138.627C283.175 136.625 286.97 118.515 286.97 118.515L302.649 116.583C302.649 116.583 300.311 78.8282 291.531 72.4936C282.751 66.1589 289.219 63.7834 289.219 63.7834Z" fill="#013982"/>
<path opacity="0.1" d="M295.681 222.453C295.681 222.453 294.275 224.987 292.159 228.75C291.829 217.12 283.695 214.865 279.559 214.478C282.093 212.47 283.866 211.311 283.866 211.311L295.681 222.453Z" fill="black"/>
<path d="M284.785 137.956L285.862 143.974C285.862 143.974 290.1 149.105 290.1 150.663C290.1 152.221 295.003 156.681 296.346 159.132C297.689 161.584 302.364 162.034 300.578 166.272C298.791 170.509 288.541 202.835 288.541 202.835L278.063 214.427C278.063 214.427 295.453 212.863 292.773 233.596L315.294 213.959L332.93 181.874C332.93 181.874 315.762 149.326 315.097 146.653C314.432 143.98 284.785 137.956 284.785 137.956Z" fill="#013982"/>
<path opacity="0.1" d="M336.927 149.105C336.927 149.105 351.193 139.071 351.193 137.956C351.193 136.841 336.927 149.105 336.927 149.105Z" fill="black"/>
<path opacity="0.1" d="M360.803 161.59C360.803 161.59 368.405 159.804 369.039 155.794C369.672 151.784 360.803 161.59 360.803 161.59Z" fill="black"/>
<path opacity="0.1" d="M367.024 171.846C367.024 171.846 377.73 166.544 377.28 165.625C376.83 164.707 367.024 171.846 367.024 171.846Z" fill="black"/>
<path opacity="0.1" d="M424.323 137.886C424.323 137.886 419.889 140.781 421.207 143.492C422.524 146.203 424.323 137.886 424.323 137.886Z" fill="black"/>
<path opacity="0.1" d="M437.455 139.071C437.455 139.071 424.823 151.106 427.68 151.334C430.537 151.562 437.455 139.071 437.455 139.071Z" fill="black"/>
<path opacity="0.1" d="M408.72 325.676C408.72 325.676 424.995 328.799 425.438 329.914C425.881 331.029 408.72 325.676 408.72 325.676Z" fill="black"/>
<path opacity="0.1" d="M414.517 336.375C414.517 336.375 423.208 341.728 423.43 343.287C423.652 344.845 414.517 336.375 414.517 336.375Z" fill="black"/>
<path opacity="0.1" d="M412.509 348.418C412.509 348.418 413.845 354.436 416.075 355.329C418.305 356.222 412.509 348.418 412.509 348.418Z" fill="black"/>
<path opacity="0.1" d="M281.022 85.0995C281.022 85.1629 281.022 85.2325 280.99 85.2959C280.686 87.2786 279.875 89.4261 278.013 90.0849C276.887 90.4014 275.685 90.2908 274.636 89.7745C271.469 88.3872 268.65 85.0552 265.267 85.8597C263.658 86.2397 262.53 87.4623 261.732 88.9636C261.179 90.0443 260.753 91.186 260.465 92.3653C259.831 94.8485 259.325 97.5471 260.294 99.9099C260.453 100.296 260.644 100.669 260.864 101.025C261.764 102.463 263.031 103.685 263.917 105.136C265.02 106.948 265.305 109.665 263.588 110.907C263.157 111.19 262.669 111.374 262.158 111.445C261.648 111.516 261.128 111.473 260.636 111.319C259.378 110.923 258.169 110.388 257.031 109.722C254.789 108.55 251.964 107.822 249.835 109.177C249.1 109.634 248.511 110.292 247.808 110.774C246.346 111.679 244.612 112.04 242.911 111.794C238.882 111.382 237.374 108.829 234.296 106.853C232.04 105.396 227.327 104.775 225.984 107.752C225.123 109.653 226.402 112.047 225.56 113.985C224.717 115.924 222.038 116.519 220.796 118.318C219.162 120.687 220.682 124.115 219.485 126.743C219.301 127.151 219.055 127.527 218.756 127.858C212.043 120.625 208.397 111.07 208.584 101.204C208.77 91.3375 212.776 81.9279 219.759 74.9541C226.741 67.9803 236.155 63.9857 246.023 63.8103C255.89 63.635 265.44 67.2926 272.666 74.0139L274.376 73.9505C276.042 73.8872 277.81 73.7985 279.59 73.6908C280.011 74.582 280.34 75.5138 280.572 76.4717C281.261 79.2941 281.414 82.2208 281.022 85.0995Z" fill="black"/>
<path d="M225.078 106.865C224.21 108.766 225.49 111.16 224.654 113.092C223.818 115.024 221.119 115.626 219.89 117.425C218.249 119.801 219.77 123.228 218.579 125.85C217.21 128.846 213.08 129.315 209.913 128.441C207.207 127.668 204.723 126.263 202.668 124.341C200.612 122.419 199.044 120.035 198.092 117.387C195.944 111.274 197.331 104.547 196.774 98.0918C196.537 95.3257 195.94 92.6021 195 89.9898C194.082 87.456 192.827 84.9601 192.53 82.2679C192.317 79.9836 192.793 77.6878 193.897 75.6769C195.002 73.6659 196.683 72.0319 198.725 70.9859C201.335 69.719 204.547 69.3579 206.447 67.1851C207.904 65.5001 208.215 63.15 208.893 61.0279C210.723 55.3267 216.19 50.6771 222.196 50.7341C226.998 50.7721 231.698 53.6037 236.392 52.4888C239.047 51.8553 241.46 49.9549 244.197 50.2273C245.508 50.4334 246.764 50.9009 247.89 51.6019C255.176 55.5372 262.109 60.0939 268.612 65.2214C269.957 66.3797 271.429 67.3808 273.002 68.205C274.014 68.5996 275.002 69.0544 275.96 69.567C278.006 70.8339 279.077 73.2474 279.66 75.5912C280.359 78.4117 280.518 81.3392 280.128 84.219C279.85 86.2524 279.051 88.5329 277.119 89.2107C275.991 89.5255 274.785 89.4104 273.736 88.8876C270.569 87.513 267.756 84.181 264.374 84.9791C261.612 85.6126 260.281 88.7419 259.559 91.4848C258.926 93.968 258.406 96.6665 259.388 99.0357C260.199 100.999 261.922 102.437 263.005 104.255C264.088 106.073 264.399 108.791 262.676 110.026C260.775 111.401 258.197 109.938 256.113 108.848C253.883 107.676 251.045 106.948 248.923 108.297C248.194 108.753 247.605 109.412 246.896 109.9C245.433 110.796 243.703 111.154 242.005 110.913C237.97 110.501 236.462 107.949 233.39 105.972C231.128 104.502 226.428 103.882 225.078 106.865Z" fill="#474463"/>
<path opacity="0.1" d="M348.368 197.172C348.197 198.122 346.892 198.23 346.626 199.155C344.092 208.093 338.517 216.131 329.914 219.425C328.261 216.822 326.893 215.118 326.893 215.118C326.893 215.118 342.945 185.694 343.838 189.703C344.123 190.951 345.98 193.853 348.368 197.172Z" fill="black"/>
<path d="M348.843 191.015C348.844 196.836 347.119 202.526 343.886 207.367C340.653 212.208 336.057 215.981 330.679 218.21C325.301 220.438 319.383 221.022 313.673 219.887C307.964 218.752 302.719 215.95 298.602 211.834C294.485 207.718 291.682 202.474 290.545 196.765C289.409 191.056 289.992 185.138 292.219 179.76C294.447 174.382 298.219 169.785 303.059 166.551C307.899 163.316 313.59 161.59 319.411 161.59C323.28 161.576 327.113 162.327 330.69 163.801C334.267 165.275 337.517 167.441 340.252 170.176C342.988 172.911 345.156 176.161 346.63 179.737C348.104 183.313 348.857 187.146 348.843 191.015Z" fill="#FFC1C8"/>
<path opacity="0.1" d="M332.575 444.387L332.79 448.277C330.212 448.847 325.309 449.594 322.452 447.846C318.758 445.585 313.304 445.034 308.306 441.955C308.395 440.575 308.348 439.189 308.167 437.818L332.575 444.387Z" fill="black"/>
<path opacity="0.1" d="M374.81 453.136C374.639 454.003 374.48 454.535 374.48 454.535C374.48 454.535 354.811 452.521 349.141 449.804C349.141 447.84 349.084 445.369 349.084 445.369L373.841 448.378L374.81 453.136Z" fill="black"/>
<path d="M370.369 364.691C369.032 368.258 368.361 368.929 369.704 370.709C371.047 372.489 370.369 381.858 368.24 382.745C366.112 383.632 358.104 388.985 358.104 388.985C358.104 388.985 362.539 394.781 362.672 397.22C362.788 398.778 363.391 400.26 364.395 401.458C364.395 401.458 371.262 416.173 372.63 420.854C373.999 425.535 375.253 432.89 375.253 432.89C375.253 432.89 372.852 439.579 374.512 443.374C376.171 447.168 374.512 452.736 374.512 452.736C374.512 452.736 350.56 450.285 347.905 447.137C345.251 443.988 347.018 436.906 347.018 436.906C346.471 433.75 345.336 430.725 343.674 427.987C340.994 423.749 344.307 419.296 343.674 419.068C343.04 418.84 340.994 416.395 338.979 412.385C336.965 408.375 335.711 409.927 335.711 409.927C335.711 409.927 338.321 432.447 335.711 434.455C333.101 436.463 332.746 435.57 333.417 438.255C333.938 440.833 334.31 443.439 334.532 446.06C334.532 446.06 326.506 448.511 322.496 446.06C318.486 443.608 312.449 443.158 307.147 439.37C301.844 435.582 309.547 429.115 310.884 428.221C312.221 427.328 310.441 414.399 310.441 414.399L308.654 401.692C308.654 401.692 314.672 403.029 312.696 398.126C310.719 393.222 308.433 376.277 307.318 373.604C306.203 370.931 311.119 367.358 310.441 365.578C309.763 363.798 313.336 353.542 313.336 353.542C313.336 353.542 313.564 345.073 315.787 343.483C316.636 342.887 317.187 341.038 317.555 338.992C317.945 336.577 318.175 334.139 318.245 331.694C318.245 331.694 369.298 328.128 377.546 333.031C381.258 335.235 380.999 339.296 379.447 343.407C377.546 348.424 373.644 353.542 372.662 355.398C370.818 358.819 371.705 361.125 370.369 364.691Z" fill="#575988"/>
<path opacity="0.1" d="M379.384 343.407C373.049 345.187 364.611 347.803 363.236 349.304C361.006 351.762 353.423 335.482 353.423 335.482C353.423 335.482 353.873 347.721 343.839 342.602C335.153 338.168 321.134 338.751 317.511 338.992C317.901 336.577 318.131 334.139 318.201 331.694C318.201 331.694 369.254 328.128 377.502 333.031C381.214 335.235 380.955 339.296 379.384 343.407Z" fill="black"/>
<path d="M353.423 208.631C353.423 208.631 357.858 203.278 358.776 205.287C359.695 207.295 364.927 211.304 364.927 211.304C364.927 211.304 366.429 215.986 369.07 216.657C371.712 217.329 391.553 244.08 391.553 244.08L384.414 258.567L378.617 293.794C378.617 293.794 378.87 299.369 377.293 301.396C375.716 303.423 369.691 302.954 372.485 305.405C375.279 307.857 379.289 310.087 381.518 321.242C383.748 332.397 386.422 338.852 386.422 338.852C386.422 338.852 365.466 344.205 363.236 346.657C361.006 349.108 353.423 332.834 353.423 332.834C353.423 332.834 353.873 345.067 343.839 339.955C333.804 334.842 316.637 336.401 316.637 336.401V323.225C316.637 323.225 319.981 318.094 318.201 314.527C316.421 310.961 319.418 304.272 319.418 304.272C319.418 304.272 318.423 297.36 316.637 293.351C314.85 289.341 315.522 270.388 315.522 270.388C315.522 270.388 314.166 258.124 315.401 251.878C316.45 246.464 318.301 241.237 320.894 236.371C323.345 231.594 324.897 227.135 324.232 225.348C323.567 223.562 330.117 219.698 330.117 219.698L333.747 225.57L334.672 229.079C334.672 229.079 353.873 215.321 353.423 208.631Z" fill="#DCE6F2"/>
<path d="M385.509 239.62C385.509 239.62 397.995 251.878 399.332 253.886C400.669 255.894 405.147 266.333 399.351 269.501C393.554 272.668 370.844 277.552 368.589 275.867C366.333 274.182 352.751 277.767 352.751 277.767C352.751 277.767 330.035 283.342 334.938 274.201C339.841 265.06 351.44 266.599 351.44 266.599C351.44 266.599 370.179 266.568 372.181 264.699C374.182 262.83 389.285 258.821 385.864 250.56C382.443 242.3 385.509 239.62 385.509 239.62Z" fill="#FFC1C8"/>
<path opacity="0.1" d="M348.843 294.466C348.843 294.466 319.76 319.658 322.655 319.658C325.55 319.658 348.843 294.466 348.843 294.466Z" fill="black"/>
<path opacity="0.1" d="M368.241 304.721C368.241 304.721 358.998 306.945 360.784 308.288C362.571 309.631 368.241 304.721 368.241 304.721Z" fill="black"/>
<path opacity="0.1" d="M335.647 243.63C335.647 243.63 347.183 244.663 345.15 248.273C343.116 251.884 335.647 243.63 335.647 243.63Z" fill="black"/>
<path opacity="0.1" d="M328.457 351.908C328.457 351.908 326.892 356.444 328.457 358.876C330.022 361.309 328.457 367.111 328.457 367.111V387.382C328.457 387.382 328.242 402.097 333.582 407.222L328.457 351.908Z" fill="black"/>
<path opacity="0.1" d="M313.184 415.077C313.184 415.077 316.301 419.644 316.751 421.317C317.2 422.989 313.184 415.077 313.184 415.077Z" fill="black"/>
<path opacity="0.1" d="M313.963 405.936C313.963 405.936 321.21 404.6 322.325 405.379C323.44 406.158 313.963 405.936 313.963 405.936Z" fill="black"/>
<path opacity="0.1" d="M311.847 433.245C311.847 433.245 309.725 433.466 313.963 435.779C318.201 438.091 326.449 441.017 326.557 440.016C326.665 439.016 311.847 433.245 311.847 433.245Z" fill="black"/>
<path opacity="0.1" d="M342.869 411.061C343.617 411.061 352.948 410.503 352.409 411.954C351.871 413.405 342.869 411.061 342.869 411.061Z" fill="black"/>
<path opacity="0.1" d="M355.545 398.018C355.545 398.018 357.661 394.344 358.44 395.902C359.22 397.46 355.545 398.018 355.545 398.018Z" fill="black"/>
<path opacity="0.1" d="M348.843 191.015C348.846 193.75 348.467 196.473 347.715 199.104C346.486 200.219 344.364 200.231 342.85 199.402C341.076 198.426 339.917 196.652 338.764 194.967C337.611 193.282 336.3 191.597 334.412 190.875C332.024 189.976 329.3 190.875 327.222 192.37C325.144 193.865 323.484 195.842 321.52 197.438C319.557 199.034 317.054 200.327 314.552 199.934C312.937 199.687 311.505 198.775 310.118 197.894C308.217 196.697 306.177 194.834 304.093 194.03C302.009 193.225 300.292 194.663 298.309 194.663C296.732 195.233 295.015 196.532 295.332 198.173C295.502 198.781 295.776 199.356 296.143 199.87C296.779 201.125 297.031 202.539 296.865 203.936C296.699 205.332 296.124 206.649 295.212 207.719C292.586 203.923 290.89 199.563 290.26 194.99C289.631 190.418 290.086 185.761 291.588 181.397C293.091 177.033 295.599 173.083 298.91 169.867C302.22 166.651 306.241 164.258 310.647 162.883C315.053 161.508 319.721 161.188 324.274 161.95C328.826 162.711 333.136 164.533 336.854 167.267C340.573 170.002 343.596 173.573 345.68 177.691C347.763 181.81 348.849 186.361 348.849 190.977L348.843 191.015Z" fill="black"/>
<path d="M298.303 193.808C296.726 194.378 295.009 195.677 295.32 197.324C295.496 197.929 295.772 198.501 296.137 199.015C297.987 202.316 296.422 207.054 292.969 208.587C292.428 208.869 291.81 208.967 291.208 208.866C290.731 208.717 290.297 208.457 289.941 208.105C288.085 206.446 286.804 204.238 286.286 201.802C285.741 199.269 286.077 196.583 285.798 193.979C285.52 191.376 284.626 188.81 284.316 186.188C284.096 184.891 284.234 183.56 284.715 182.336C285.133 181.529 285.671 180.79 286.312 180.144C288.092 178.162 289.948 176.135 290.841 173.62C292.254 169.616 291.227 164.517 294.319 161.584C295.75 160.241 297.752 159.741 299.526 158.892C301.196 158.005 302.795 156.991 304.309 155.857C310.042 151.917 317.01 148.889 323.827 150.283C326.55 150.942 329.158 152.01 331.562 153.45C336.026 155.911 340.266 158.76 344.231 161.964C345.946 163.232 347.444 164.77 348.666 166.519C349.576 168.015 350.231 169.653 350.604 171.365C351.515 175.099 351.64 178.982 350.972 182.767C350.338 186.479 348.9 190.083 348.843 193.852C348.843 195.119 348.945 196.488 348.292 197.577C347.247 199.313 344.656 199.478 342.882 198.515C341.108 197.552 339.949 195.766 338.802 194.081C337.656 192.396 336.338 190.711 334.45 189.995C332.062 189.089 329.338 189.995 327.26 191.483C325.182 192.972 323.529 194.955 321.559 196.551C319.589 198.147 317.124 199.44 314.59 199.047C312.975 198.8 311.543 197.894 310.156 197.013C308.256 195.81 306.216 193.948 304.138 193.149C302.06 192.351 300.28 193.808 298.303 193.808Z" fill="#794F6A"/>
<path d="M365.909 239.62C365.909 239.62 333.139 269.938 339.822 285.097C346.506 300.255 375.931 273.504 375.931 273.504L386.422 249.23L365.909 239.62Z" fill="#F8BDC5"/>
<g opacity="0.1">
<path opacity="0.1" d="M292.957 206.788C292.418 207.07 291.802 207.168 291.202 207.067C290.723 206.92 290.287 206.656 289.935 206.3C288.078 204.642 286.796 202.437 286.273 200.003C285.735 197.438 286.071 194.777 285.792 192.174C285.513 189.57 284.614 187.011 284.31 184.382C284.31 184.256 284.31 184.123 284.278 183.99C284.209 184.715 284.22 185.446 284.31 186.169C284.614 188.791 285.513 191.325 285.792 193.96C286.071 196.595 285.735 199.224 286.273 201.783C286.794 204.22 288.077 206.427 289.935 208.086C290.289 208.439 290.724 208.7 291.202 208.847C291.802 208.948 292.418 208.85 292.957 208.568C295.681 207.358 297.22 204.172 296.859 201.258C296.727 202.434 296.3 203.557 295.618 204.524C294.936 205.49 294.02 206.269 292.957 206.788Z" fill="black"/>
<path opacity="0.1" d="M350.927 180.974C350.294 184.686 348.856 188.291 348.805 192.06C348.805 193.327 348.906 194.695 348.247 195.785C347.209 197.52 344.618 197.685 342.844 196.722C341.07 195.759 339.911 193.979 338.758 192.288C337.605 190.597 336.3 188.918 334.406 188.202C332.024 187.303 329.3 188.202 327.222 189.697C325.144 191.192 323.484 193.162 321.521 194.765C319.557 196.367 317.054 197.653 314.552 197.267C312.937 197.014 311.505 196.108 310.118 195.227C308.217 194.024 306.177 192.168 304.1 191.363C302.022 190.559 300.299 191.996 298.316 191.996C296.738 192.573 295.022 193.865 295.326 195.519C295.365 195.697 295.422 195.871 295.497 196.038C296.117 194.957 297.125 194.151 298.316 193.783C300.292 193.783 302.041 192.364 304.1 193.149C306.158 193.935 308.236 195.81 310.118 197.014C311.492 197.894 312.924 198.8 314.552 199.047C317.086 199.44 319.569 198.166 321.521 196.551C323.472 194.936 325.15 192.94 327.222 191.483C329.293 190.026 332.024 189.089 334.406 189.995C336.306 190.711 337.611 192.415 338.758 194.081C339.904 195.747 341.07 197.514 342.844 198.515C344.618 199.516 347.209 199.313 348.247 197.577C348.881 196.488 348.786 195.126 348.805 193.853C348.856 190.083 350.275 186.479 350.927 182.767C351.261 180.86 351.397 178.924 351.333 176.99C351.292 178.326 351.157 179.657 350.927 180.974Z" fill="black"/>
</g>
<path opacity="0.1" d="M326.671 85.3402C326.671 85.3402 314.635 107.188 331.105 118.337C347.576 129.486 349.166 128.371 349.166 128.371C349.166 128.371 348.938 131.045 349.166 131.716C349.394 132.388 353.601 133.94 353.601 133.94C353.601 133.94 358.726 142.175 366.08 145.76C373.435 149.345 374.778 157.796 374.778 157.796C374.778 157.796 374.778 160.697 378.579 163.37C382.38 166.043 385.307 173.848 385.307 173.848V180.987C385.307 182.102 386.643 185.421 383.748 185.776C380.853 186.131 383.299 192.801 383.299 192.801C383.299 192.801 380.182 196.602 380.847 198.375C381.512 200.149 379.51 203.722 379.51 203.722C379.51 203.722 377.059 207.288 377.28 207.96C377.502 208.631 374.607 211.083 375.272 212.641C375.937 214.199 371.934 216.207 372.599 217.994C373.264 219.78 369.748 220.667 369.748 220.667L360.113 242.965C360.113 242.965 380.384 247.399 385.617 258.567L411.172 211.748C411.172 211.748 425.438 176.749 425.888 174.519C426.338 172.289 422.765 164.263 422.765 164.263L405.376 132.59L379.289 95.805C379.289 95.805 358.554 51.678 326.671 85.3402Z" fill="black"/>
<path opacity="0.1" d="M352.409 94.5571C352.409 94.5571 321.09 105.548 337.586 116.697C354.082 127.846 355.646 126.724 355.646 126.724C355.646 126.724 355.425 129.404 355.646 130.069C355.868 130.734 360.081 132.299 360.081 132.299C360.081 132.299 365.212 140.534 372.567 144.119C379.922 147.705 381.265 156.155 381.265 156.155C381.265 156.155 381.265 159.056 385.066 161.73C388.867 164.403 391.755 172.207 391.755 172.207V179.34C391.755 180.455 393.092 183.774 390.191 184.135C387.289 184.496 389.747 191.16 389.747 191.16C389.747 191.16 386.624 194.961 387.296 196.728C387.967 198.496 385.959 202.081 385.959 202.081C385.959 202.081 383.507 205.648 383.729 206.319C383.951 206.991 381.049 209.442 381.721 211C382.392 212.559 378.376 214.567 379.048 216.353C379.719 218.14 376.19 219.026 376.19 219.026L366.561 241.318C366.561 241.318 383.26 242.179 388.531 253.354L417.614 210.133C417.614 210.133 431.887 175.134 432.33 172.904C432.774 170.674 429.22 162.623 429.22 162.623L411.831 130.95L372.162 108.069C372.162 108.069 384.293 60.8885 352.409 94.5571Z" fill="black"/>
<path d="M328.457 85.3402C328.457 85.3402 316.421 107.188 332.892 118.337C349.362 129.486 350.952 128.371 350.952 128.371C350.952 128.371 350.731 131.045 350.952 131.716C351.174 132.388 355.387 133.94 355.387 133.94C355.387 133.94 360.518 142.175 367.873 145.76C375.228 149.345 376.571 157.796 376.571 157.796C376.571 157.796 376.571 160.697 380.371 163.37C384.172 166.043 387.093 173.848 387.093 173.848V180.987C387.093 182.102 388.429 185.421 385.528 185.776C382.627 186.131 385.085 192.801 385.085 192.801C385.085 192.801 381.962 196.602 382.633 198.375C383.305 200.149 381.296 203.722 381.296 203.722C381.296 203.722 378.845 207.288 379.067 207.96C379.288 208.631 376.387 211.083 377.058 212.641C377.73 214.199 373.714 216.207 374.385 217.994C375.057 219.78 371.528 220.667 371.528 220.667L361.899 242.965C361.899 242.965 382.133 247.399 387.397 258.567L412.952 211.748C412.952 211.748 427.224 176.749 427.668 174.519C428.111 172.289 424.545 164.263 424.545 164.263L407.155 132.59L381.075 95.8177C381.075 95.8177 360.334 51.678 328.457 85.3402Z" fill="#013982"/>
<g opacity="0.1">
<path opacity="0.1" d="M196.774 96.3118C196.54 93.5431 195.944 90.8171 195 88.2035C194.082 85.6696 192.828 83.1738 192.53 80.4816C192.53 80.3992 192.53 80.3232 192.53 80.2408C192.463 80.9149 192.463 81.5939 192.53 82.2679C192.828 84.9601 194.082 87.437 195 89.9898C195.944 92.6013 196.54 95.3252 196.774 98.0919C196.863 99.1307 196.901 100.182 196.914 101.259C196.933 99.5805 196.914 97.9398 196.774 96.3118Z" fill="black"/>
<path opacity="0.1" d="M218.579 124.07C217.217 127.06 213.08 127.535 209.913 126.655C207.209 125.88 204.727 124.474 202.672 122.554C200.617 120.633 199.047 118.252 198.092 115.607C197.211 112.885 196.783 110.037 196.825 107.176C196.787 110.666 196.92 114.112 198.092 117.387C199.047 120.033 200.617 122.415 202.672 124.337C204.727 126.258 207.208 127.665 209.913 128.441C213.08 129.315 217.217 128.846 218.579 125.85C219.155 124.583 219.098 123.114 219.073 121.669C219.061 122.494 218.894 123.308 218.579 124.07Z" fill="black"/>
<path opacity="0.1" d="M280.128 82.4263C279.856 84.4534 279.051 86.7338 277.119 87.4116C275.993 87.7262 274.791 87.6134 273.743 87.0949C270.575 85.714 267.756 82.3819 264.374 83.1864C261.612 83.8199 260.288 86.9429 259.559 89.6921C259.031 91.4292 258.801 93.2436 258.881 95.0575C259.002 93.8449 259.229 92.6452 259.559 91.4721C260.288 88.7292 261.612 85.6253 264.374 84.9665C267.756 84.1683 270.55 87.5003 273.743 88.8749C274.789 89.3979 275.993 89.5131 277.119 89.198C279.051 88.5202 279.856 86.2397 280.128 84.2063C280.303 82.9112 280.366 81.6037 280.318 80.2979C280.287 81.0073 280.223 81.7231 280.128 82.4263Z" fill="black"/>
<path opacity="0.1" d="M262.676 108.234C260.775 109.608 258.197 108.145 256.113 107.049C253.883 105.877 251.045 105.149 248.923 106.498C248.194 106.954 247.605 107.613 246.896 108.101C245.436 109.004 243.704 109.363 242.005 109.114C237.97 108.702 236.462 106.15 233.39 104.173C231.134 102.722 226.421 102.102 225.078 105.079C224.756 105.955 224.667 106.9 224.819 107.822C224.86 107.492 224.948 107.171 225.078 106.865C226.428 103.882 231.134 104.503 233.39 105.959C236.462 107.936 237.97 110.489 242.005 110.9C243.704 111.144 245.435 110.783 246.896 109.881C247.605 109.399 248.194 108.74 248.923 108.284C251.064 106.954 253.883 107.651 256.113 108.835C258.197 109.925 260.763 111.369 262.676 110.014C263.791 109.215 264.057 107.797 263.81 106.397C263.68 107.131 263.274 107.788 262.676 108.234Z" fill="black"/>
<path opacity="0.1" d="M224.654 111.312C223.786 113.301 221.119 113.846 219.89 115.639C218.972 116.969 219.048 118.629 219.079 120.295C219.068 119.28 219.349 118.284 219.89 117.425C221.119 115.632 223.786 115.081 224.654 113.092C224.958 112.227 225.04 111.299 224.895 110.394C224.856 110.709 224.775 111.018 224.654 111.312Z" fill="black"/>
</g>
</g>
<defs>
<linearGradient id="paint0_linear" x1="326.804" y1="497.478" x2="326.804" y2="45.9451" gradientUnits="userSpaceOnUse">
<stop stop-color="#808080" stop-opacity="0.25"/>
<stop offset="0.54" stop-color="#808080" stop-opacity="0.12"/>
<stop offset="1" stop-color="#808080" stop-opacity="0.1"/>
</linearGradient>
<clipPath id="clip0">
<rect width="695" height="501" fill="white"/>
</clipPath>
</defs>
</svg>
